<?xml version="1.0" encoding="UTF-8" standalone="no"?>
<!-- Created with Inkscape (http://www.inkscape.org/) -->

<svg
   width="750mm"
   height="750mm"
   viewBox="0 0 750 750"
   version="1.1"
   id="svg5"
   xml:space="preserve"
   xmlns:inkscape="http://www.inkscape.org/namespaces/inkscape"
   xmlns:sodipodi="http://sodipodi.sourceforge.net/DTD/sodipodi-0.dtd"
   xmlns="http://www.w3.org/2000/svg"
   xmlns:svg="http://www.w3.org/2000/svg"><sodipodi:namedview
     id="namedview7"
     pagecolor="#ffffff"
     bordercolor="#000000"
     borderopacity="0.25"
     inkscape:showpageshadow="2"
     inkscape:pageopacity="0.0"
     inkscape:pagecheckerboard="0"
     inkscape:deskcolor="#d1d1d1"
     inkscape:document-units="mm"
     showgrid="false"
     showguides="false" /><defs
     id="defs2"><clipPath
       clipPathUnits="userSpaceOnUse"
       id="clipPath246"><path
         d="m 35130.1,5279.3 c 0.7,2 1.2,4.1 1.8,6.2 -0.4,-2 -1,-4.1 -1.8,-6.2"
         id="path244" /></clipPath><clipPath
       clipPathUnits="userSpaceOnUse"
       id="clipPath1175"><rect
         style="fill:#000000;stroke-width:7.49999"
         id="rect1177"
         width="21259.842"
         height="21259.842"
         x="10020.52"
         y="-23114.967"
         transform="scale(1,-1)" /></clipPath></defs><g
     inkscape:label="Layer 1"
     inkscape:groupmode="layer"
     id="layer1"
     transform="translate(218.19545,268.86725)"><g
       id="g10"
       transform="matrix(0.03527778,0,0,-0.03527778,-571.69713,546.57746)"
       clip-path="url(#clipPath1175)"><path
         d="M 0,0 H 40000 V 24615.4 H 0 Z"
         style="fill:#ffffff;fill-opacity:1;fill-rule:nonzero;stroke:none"
         id="path12" /><path
         d="M 34968.7,2131.3 H 4663.41 c -199.1,0 -362,162.9 -362,362 0,199.1 162.9,362 362,362 H 34968.7 c 199.1,0 362,-162.9 362,-362 0,-199.1 -162.9,-362 -362,-362"
         style="fill:#e3e4eb;fill-opacity:1;fill-rule:nonzero;stroke:none"
         id="path14" /><path
         d="m 19460.3,10403.9 c -1668.1,0 -3119.4,928.3 -3865.4,2296.6 764.1,-1236.3 2131.6,-2060 3691.7,-2060 1074.7,0 2058.1,390.9 2815.7,1038.4 v 0 c 21.1,18 42.1,36.2 62.8,54.6 v 0 0 c 894.6,794.5 1458.2,1953.2 1458.2,3243.7 0,1560.1 -823.7,2927.7 -2060,3691.7 1368.3,-746 2296.6,-2197.3 2296.6,-3865.4 0,-1309.2 -571.8,-2484.8 -1479.3,-3290.8 -21,-18.6 -42.3,-37.1 -63.7,-55.4 -768.7,-656.8 -1766.3,-1053.4 -2856.6,-1053.4"
         style="fill:#d9d5d4;fill-opacity:1;fill-rule:nonzero;stroke:none"
         id="path16" /><path
         d="m 23623.3,14977.2 c 0,-1290.5 -563.6,-2449.2 -1458.2,-3243.7 -20.7,-18.4 -41.7,-36.6 -62.8,-54.6 -757.6,-647.5 -1741,-1038.4 -2815.7,-1038.4 -2395.1,0 -4336.7,1941.6 -4336.7,4336.7 0,2395.1 1941.6,4336.7 4336.7,4336.7 2395.1,0 4336.7,-1941.6 4336.7,-4336.7"
         style="fill:#ffffff;fill-opacity:1;fill-rule:nonzero;stroke:none"
         id="path18" /><path
         d="m 22845.8,14977.2 c 0,-1965.7 -1593.5,-3559.2 -3559.2,-3559.2 -1965.7,0 -3559.1,1593.5 -3559.1,3559.2 0,1965.7 1593.4,3559.1 3559.1,3559.1 1965.7,0 3559.2,-1593.4 3559.2,-3559.1"
         style="fill:#f14160;fill-opacity:1;fill-rule:nonzero;stroke:none"
         id="path20" /><path
         d="m 21991.9,14977.2 c 0,-1494.1 -1211.2,-2705.3 -2705.3,-2705.3 -1494.1,0 -2705.3,1211.2 -2705.3,2705.3 0,1494.1 1211.2,2705.3 2705.3,2705.3 1494.1,0 2705.3,-1211.2 2705.3,-2705.3"
         style="fill:#ffffff;fill-opacity:1;fill-rule:nonzero;stroke:none"
         id="path22" /><path
         d="m 21097,14977.2 c 0,-999.9 -810.5,-1810.4 -1810.4,-1810.4 -999.8,0 -1810.4,810.5 -1810.4,1810.4 0,999.8 810.6,1810.4 1810.4,1810.4 999.9,0 1810.4,-810.6 1810.4,-1810.4"
         style="fill:#f14257;fill-opacity:1;fill-rule:nonzero;stroke:none"
         id="path24" /><path
         d="m 20199.1,14977.2 c 0,-504 -408.5,-912.5 -912.5,-912.5 -503.9,0 -912.5,408.5 -912.5,912.5 0,503.9 408.6,912.5 912.5,912.5 504,0 912.5,-408.6 912.5,-912.5"
         style="fill:#ffffff;fill-opacity:1;fill-rule:nonzero;stroke:none"
         id="path26" /><path
         d="m 19302.5,14961.3 339,698.3 30.3,-377.4 -369.3,-320.9"
         style="fill:#494a4b;fill-opacity:1;fill-rule:nonzero;stroke:none"
         id="path28" /><path
         d="m 19302.5,14961.3 738.8,238.1 -369.5,82.8 -369.3,-320.9"
         style="fill:#494a4b;fill-opacity:1;fill-rule:nonzero;stroke:none"
         id="path30" /><path
         d="m 24625.7,19534 -4935.2,-4287.1 -54.6,62.8 4935.2,4287.2 54.6,-62.9"
         style="fill:#494a4b;fill-opacity:1;fill-rule:nonzero;stroke:none"
         id="path32" /><path
         d="m 23888.9,18929.7 29,453.5 707.6,622.6 -28.6,-448.1 -708,-628"
         style="fill:#494a4b;fill-opacity:1;fill-rule:nonzero;stroke:none"
         id="path34" /><path
         d="m 25050.1,19523.3 -453.6,29 -707.6,-622.6 448.1,-28.7 713.1,622.3"
         style="fill:#494a4b;fill-opacity:1;fill-rule:nonzero;stroke:none"
         id="path36" /><path
         d="m 22102.3,11678.9 -509.9,586.9 c 21.1,18 42.1,36.3 62.8,54.7 l 509.9,-587 c -20.7,-18.4 -41.7,-36.6 -62.8,-54.6 v 0"
         style="fill:#e6e3e2;fill-opacity:1;fill-rule:nonzero;stroke:none"
         id="path38" /><path
         d="m 21592.4,12265.8 -0.1,0.1 -559.9,644.6 c 21.2,17.9 42.1,36.2 62.7,54.7 l 560,-644.6 0.1,-0.1 c -20.7,-18.4 -41.7,-36.7 -62.8,-54.7"
         style="fill:#dd455e;fill-opacity:1;fill-rule:nonzero;stroke:none"
         id="path40" /><path
         d="m 21032.4,12910.5 v 0 l -587,675.7 c 21.4,17.8 42.2,36 62.7,54.8 l 587,-675.7 v -0.1 c -20.6,-18.5 -41.5,-36.8 -62.7,-54.7"
         style="fill:#e6e3e2;fill-opacity:1;fill-rule:nonzero;stroke:none"
         id="path42" /><path
         d="m 20445.4,13586.2 v 0 l -589.1,678.2 c 21.7,17.3 42.6,35.6 62.6,54.9 l 589.2,-678.3 v 0 c -20.5,-18.8 -41.3,-37 -62.7,-54.8"
         style="fill:#dd4556;fill-opacity:1;fill-rule:nonzero;stroke:none"
         id="path44" /><path
         d="m 19540.5,14222.5 -238,738.8 698.2,-339 -322.5,-25.9 240.7,-277.1 v 0 c -20,-19.3 -40.9,-37.6 -62.6,-54.9 v 0 l -243.5,280.3 v 0 l -72.3,-322.2"
         style="fill:#e6e3e2;fill-opacity:1;fill-rule:nonzero;stroke:none"
         id="path46" /><path
         d="m 19818.1,6784.1 h -358.8 v 1435.2 h 358.8 V 6784.1"
         style="fill:#bbbab8;fill-opacity:1;fill-rule:nonzero;stroke:none"
         id="path48" /><path
         d="M 21093.5,7316.6 H 18184 c -12.3,0 -22.3,10.1 -22.3,22.4 v 1966.2 c 0,12.3 10,22.3 22.3,22.3 h 2909.5 c 12.2,0 22.3,-10 22.3,-22.3 V 7339 c 0,-12.3 -10.1,-22.4 -22.3,-22.4"
         style="fill:#d8d7d5;fill-opacity:1;fill-rule:nonzero;stroke:none"
         id="path50" /><path
         d="m 21083.9,7432.2 h -2890.4 v 1867.4 h 2890.4 V 7432.2"
         style="fill:#251f2a;fill-opacity:1;fill-rule:nonzero;stroke:none"
         id="path52" /><path
         d="m 20304,6714.3 h -1330.5 v 20.9 c 0,27 21.8,48.9 48.8,48.9 h 1232.8 c 27,0 48.9,-21.9 48.9,-48.9 v -20.9"
         style="fill:#d8d7d5;fill-opacity:1;fill-rule:nonzero;stroke:none"
         id="path54" /><path
         d="m 14318.3,2918.5 c 0,0 315.9,-90 501.5,57.7 0,0 286.3,-300.2 593.1,-322.9 0,0 53,-56.8 0,-68.2 -53,-11.3 -655.2,-34 -768.9,49.3 0,0 -181,-74.5 -325.7,15.1 -79.4,49.2 0,269 0,269"
         style="fill:#1e1c1c;fill-opacity:1;fill-rule:nonzero;stroke:none"
         id="path56" /><path
         d="m 13409.6,2935.3 c 0,0 -307.7,-87.7 -488.5,56.2 0,0 -279,-292.4 -577.8,-314.5 0,0 -51.7,-55.4 0,-66.4 51.6,-11.1 638.3,-33.2 749,47.9 0,0 176.3,-72.5 317.3,14.8 77.4,47.9 0,262 0,262"
         style="fill:#1e1c1c;fill-opacity:1;fill-rule:nonzero;stroke:none"
         id="path58" /><path
         d="m 13059.4,7124.8 -170.8,-4155.1 c 0,0 342.3,-160.2 522.6,-36.8 l 112.1,1743.7 356.2,1584.7 600.8,-1556.2 -170.8,-1791.4 c 0,0 424.9,-89.6 550.2,62.5 l 203.1,1846.2 c 5.2,47.9 2.2,96.5 -8.9,143.4 l -476.7,2010.5 c 0,0 -1088.2,-183.6 -1517.8,148.5"
         style="fill:#6c1417;fill-opacity:1;fill-rule:nonzero;stroke:none"
         id="path60" /><path
         d="m 13955.9,10047.4 c 72.1,1.7 132.7,28.2 183.2,69 l -19.5,-499 h -474.4 l -62.5,585.9 c 76.6,-79.9 197.5,-160 373.2,-155.9"
         style="fill:#f3dfc9;fill-opacity:1;fill-rule:nonzero;stroke:none"
         id="path62" /><path
         d="m 14154.5,10509.3 -13.5,-345.1 c -47.1,-55.6 -111.1,-89.5 -197.1,-89.5 -197.7,0 -312,131.2 -378,286.1 l -18.2,170.5 606.8,-22"
         style="fill:#f5e7c9;fill-opacity:1;fill-rule:nonzero;stroke:none"
         id="path64" /><path
         d="m 14141,10164.2 c -47.1,-55.6 -111.1,-89.5 -197.1,-89.5 -197.7,0 -312,131.2 -378,286.1 -95.1,223.3 -89.9,495.7 -89.9,495.7 l 81.8,77.7 152.2,144.4 506.4,62.2 c 0,0 43.9,-222.4 45.5,-463.9 1.4,-193.2 -24.3,-398.7 -120.9,-512.7"
         style="fill:#f3dfc9;fill-opacity:1;fill-rule:nonzero;stroke:none"
         id="path66" /><path
         d="m 14141,10164.2 -1.9,-47.8 c -50.5,-40.8 -111.1,-67.3 -183.2,-69 -175.7,-4.1 -296.6,76 -373.2,155.9 l -16.8,157.5 c 66,-154.9 180.3,-286.1 378,-286.1 86,0 150,33.9 197.1,89.5"
         style="fill:#e2cab4;fill-opacity:1;fill-rule:nonzero;stroke:none"
         id="path68" /><path
         d="m 14141,10164.2 c -47.1,-55.6 -111.1,-89.5 -197.1,-89.5 -197.7,0 -312,131.2 -378,286.1 -95.1,223.3 -89.9,495.7 -89.9,495.7 l 81.8,77.7 704.1,-257.3 c 1.4,-193.2 -24.3,-398.7 -120.9,-512.7"
         style="fill:#f3dfc9;fill-opacity:1;fill-rule:nonzero;stroke:none"
         id="path70" /><path
         d="m 13567.8,10931.2 c 0,0 596.6,-165.6 835.9,247.6 0,0 -389.9,163.4 -605.4,163.4 -215.5,0 -339.2,-232.4 -339.2,-232.4 0,0 -296.2,-179.4 112.4,-801.6 l -3.7,623"
         style="fill:#343434;fill-opacity:1;fill-rule:nonzero;stroke:none"
         id="path72" /><path
         d="m 13590.9,10718.7 c 42.7,-60.6 47.1,-131 9.8,-157.3 -37.3,-26.3 -102.2,1.5 -144.9,62.1 -42.7,60.6 -47.1,131 -9.8,157.3 37.3,26.3 102.1,-1.5 144.9,-62.1"
         style="fill:#f3dfc9;fill-opacity:1;fill-rule:nonzero;stroke:none"
         id="path74" /><path
         d="m 13606.3,9982.5 -113.6,-131.3 -433.3,-119.9 v -2755 c 0,0 833.9,-261.6 1517.8,0 v 2741.4 l -359.7,106.3 -78.4,125.3 -270.2,-258.8 -262.6,292"
         style="fill:#f57821;fill-opacity:1;fill-rule:nonzero;stroke:none"
         id="path76" /><path
         d="M 15564.1,8305.6 15268,8073.3 c 0,0 -76.8,-54.8 -131.7,0 -54.8,54.9 -559.1,776.1 -559.1,776.1 v 868.3 c 0,0 78.4,-48.5 285.8,-389.6 207.4,-341.1 424.9,-684.2 424.9,-684.2 l 105.1,60 c 21.2,-112.4 68,-261.4 171.1,-398.3"
         style="fill:#f57821;fill-opacity:1;fill-rule:nonzero;stroke:none"
         id="path78" /><path
         d="m 13059.4,9731.3 v -806.5 c 0,0 -575.8,-433.5 -586.1,-744.1 -1.8,-52.8 15.2,-111.1 44.4,-171.4 -155.7,-73.8 -255.7,-151.7 -319.8,-220.3 -1.5,2 -3,3.9 -4.6,5.9 -276.4,361.9 -146.8,665.6 -146.8,665.6 256.1,614.5 1012.9,1270.8 1012.9,1270.8"
         style="fill:#f57821;fill-opacity:1;fill-rule:nonzero;stroke:none"
         id="path80" /><path
         d="m 16630.4,9356.1 c 0,0 42.9,-260.4 -93.7,-397 0,0 -103.7,-47.9 -205.5,-51.9 l -767.1,-601.6 c -103.1,136.9 -149.9,285.9 -171.1,398.3 l 708.8,404.8 c 0,0 103.7,432.9 400.9,325.2 0,0 396,268.3 433,231.3 36.8,-36.9 -305.3,-309.1 -305.3,-309.1"
         style="fill:#f3dfc9;fill-opacity:1;fill-rule:nonzero;stroke:none"
         id="path82" /><path
         d="m 13261.8,6860.1 c -174.2,-34.7 -320.9,224.7 -320.9,224.7 0,0 -465.9,344.5 -743,704.2 64.1,68.6 164.1,146.5 319.8,220.3 142.9,-294.3 580.3,-637.7 580.3,-637.7 l 221.9,-105.8 c 221.9,-105.8 116.2,-371 -58.1,-405.7"
         style="fill:#f3dfc9;fill-opacity:1;fill-rule:nonzero;stroke:none"
         id="path84" /><path
         d="m 13848.2,9713.6 -187.8,-181.4 -167.7,319 113.6,131.3 241.9,-268.9"
         style="fill:#e6ecf5;fill-opacity:1;fill-rule:nonzero;stroke:none"
         id="path86" /><path
         d="m 13889.6,9710.2 163.5,-197.6 164.4,311.4 -78.4,125.3 -249.5,-239.1"
         style="fill:#e6ecf5;fill-opacity:1;fill-rule:nonzero;stroke:none"
         id="path88" /><path
         d="m 7033.44,4612.8 c -11.28,-48.9 -73.57,-76.3 -139.04,-61.2 -65.47,15.1 -109.44,67.1 -98.14,116 11.29,48.9 73.57,76.3 139.04,61.2 65.54,-15.1 109.44,-67 98.14,-116 m -968.42,-221.1 c -116.57,-47.7 -225.84,-50.4 -244.01,-6 -18.19,44.5 61.6,119.2 178.17,166.9 116.58,47.8 225.83,50.4 244.01,6 18.18,-44.4 -61.55,-119.1 -178.17,-166.9 m 870.88,1855.6 c 23.61,57.9 65.05,95.6 92.59,84.4 27.48,-11.3 30.62,-67.3 7.01,-125.1 -23.62,-57.8 -65.11,-95.6 -92.59,-84.4 -27.49,11.3 -30.62,67.2 -7.01,125.1 m -690.18,-597.2 c -2.59,29.5 45.72,57.9 108,63.4 62.21,5.5 114.81,-13.9 117.42,-43.4 2.65,-29.4 -45.66,-57.8 -107.94,-63.3 -62.27,-5.6 -114.81,13.8 -117.48,43.3 m 69.83,-552.8 c -73.69,-36.6 -151.54,-29.8 -173.89,15.2 -22.28,45 19.33,111.2 93.08,147.7 73.74,36.6 151.59,29.8 173.88,-15.2 22.35,-45 -19.33,-111.2 -93.07,-147.7 m 604.16,-55.7 c -14.91,-28.5 -68.01,-30.1 -118.56,-3.6 -50.55,26.5 -79.36,71 -64.45,99.5 14.93,28.5 68.02,30.1 118.57,3.6 50.5,-26.5 79.36,-71.1 64.44,-99.5 m 573.48,117.8 c -88.48,-46.2 -396.56,-393.1 -430.15,-115.5 -33.53,277.5 173.89,207.4 173.89,207.4 305.07,-82.4 527.76,250.1 527.76,250.1 1.93,61.8 -21.45,140.3 -54.36,218.7 -2.41,5.9 -4.89,11.8 -7.43,17.6 -71.45,163.7 -179.2,322 -179.2,322 -125.08,-234.9 -655.86,-649.8 -707.75,-524.7 -51.83,125 88.49,167.8 88.49,167.8 494.18,103.7 512.48,466.7 512.48,466.7 -9.24,24.4 -27.31,50.3 -51.04,76.8 -4.11,4.5 -8.34,9 -12.69,13.6 -130.69,135.5 -396.87,278.7 -396.87,278.7 -18.31,-271.5 -207.47,-408.8 -207.47,-408.8 -326.4,-18.3 -152.51,186.1 -152.51,186.1 253.19,67.1 231.8,314.2 231.8,314.2 -17.74,0 -42.69,9.7 -71.32,25.2 -4.89,2.7 -9.97,5.5 -15.1,8.6 -113.43,66.2 -270.47,207.2 -270.47,207.2 -12.02,-108.1 -136.32,-145.3 -140.18,-146.4 33.52,18.7 48.67,183 48.67,183 -9.53,4.1 -21.07,11 -34.05,20 -4.6,3.3 -9.43,6.8 -14.38,10.6 -79.48,60 -198.89,182.1 -252.84,238.5 -17.56,18.5 -28.19,29.9 -28.19,29.9 1.38,-4.5 2.06,-9.8 2.06,-15.6 0,-9.5 -1.76,-20.7 -5.03,-33.2 -19.74,-77.6 -94.82,-206.6 -153.71,-300.2 -3.44,-5.5 -6.88,-11 -10.27,-16.2 -36.72,-57.8 -64.86,-98.5 -64.86,-98.5 94.58,-237.9 497.2,-161.7 326.4,-368.1 -170.82,-206.5 -414.89,233.9 -414.89,233.9 4.72,-27.3 -23.01,-81.7 -63.6,-144.1 -3.5,-5.3 -7.06,-10.7 -10.74,-16.2 -29.78,-44.3 -65.05,-91.6 -99.12,-135.5 -3.75,-4.8 -7.55,-9.6 -11.24,-14.4 -66.98,-85.2 -126.41,-153.5 -126.41,-153.5 0,0 30.51,-253.2 390.42,-338.6 359.97,-85.4 308.16,-155.6 308.16,-155.6 -353.88,-152.5 -726.06,396.6 -726.06,396.6 -73.63,-79.9 -132.94,-185.2 -179.5,-290.8 -2.6,-5.8 -5.14,-11.7 -7.61,-17.5 -90.72,-212 -130.11,-419.4 -130.11,-419.4 338.6,-465.4 527.71,-227.1 692.41,-227.1 164.77,0 247.1,-48.8 247.1,-94.6 0,-45.8 -39.63,-198.3 -359.92,-198.3 -320.3,0 -607.06,326.4 -607.06,326.4 28.2,-177.8 63.29,-329.6 103.77,-458.7 2.04,-6.4 4.09,-12.9 6.15,-19.3 386.13,-1194 1243.72,-381.2 1354.62,-269.4 7.78,7.9 11.9,12.3 11.9,12.3 0,0 0.91,-10.4 5.37,-26.7 v -0.1 c 3.14,-11.5 8.1,-25.8 15.83,-41.7 v -0.1 c 18.72,-38.6 53.82,-85.5 119.1,-117.5 317.94,-155.8 1076.85,54.9 1043.26,430.7 -6.15,69 -4.28,135.7 2.85,198.6 0.72,6.4 1.51,12.9 2.35,19.2 35.57,270.1 165.62,466.3 165.62,466.3 0,0 -295.9,-114.3 -384.33,-160.4"
         style="fill:#4e9a35;fill-opacity:1;fill-rule:nonzero;stroke:none"
         id="path90" /><path
         d="m 5576.39,4615.2 c -168.7,0 -318.42,17.3 -419.77,33 v 0 c -2.06,6.4 -4.11,12.9 -6.15,19.3 100.54,-15.9 253.22,-34.2 425.96,-34.2 5.73,0 11.46,0 17.24,0.1 91.29,0.6 193.84,6.7 300.05,22.7 3.05,-5.8 6.29,-11.5 9.67,-17.2 -97.48,-15 -201.14,-22.9 -310.03,-23.6 -5.67,-0.1 -11.36,-0.1 -16.97,-0.1"
         style="fill:#80b260;fill-opacity:1;fill-rule:nonzero;stroke:none"
         id="path92" /><path
         d="m 7623.34,4814.3 c -3.68,5.6 -6.92,11.1 -9.79,16.5 31.98,6.7 64.78,14.2 98.35,22.7 -0.84,-6.3 -1.63,-12.8 -2.35,-19.2 v 0 c -29.35,-7.4 -58.07,-14 -86.21,-20"
         style="fill:#80b260;fill-opacity:1;fill-rule:nonzero;stroke:none"
         id="path94" /><path
         d="m 6164.29,5351 c -7.21,5.5 -15.73,11.6 -25.3,18.4 75.56,0.1 154.95,7.1 237.9,22.8 9.02,-0.7 18.21,-1 27.53,-1 10.67,0 21.5,0.4 32.55,1.4 0,0 8.1,1.2 20.56,1.2 2.8,0 5.82,-0.1 9.01,-0.2 -101.36,-26 -202.34,-40.3 -302.25,-42.6 m -288.54,26.9 c -136.24,29.1 -269.2,81.2 -396.3,155.4 -115.06,67.3 -207.77,142.8 -275.17,205.9 2.47,5.8 5.01,11.7 7.61,17.5 66.98,-63 160.54,-139.8 277.35,-208 101.57,-59.3 230.4,-117.3 382.29,-150.6 1.43,-6.5 2.84,-13.3 4.22,-20.2"
         style="fill:#80b260;fill-opacity:1;fill-rule:nonzero;stroke:none"
         id="path96" /><path
         d="m 6621.09,5907.9 c -40.46,0.7 -72.05,4 -91.79,6.7 v 0 c -1.46,6.2 -2.96,12.5 -4.47,18.9 v 0 0 c 14.99,-2.3 40.75,-5.4 74.8,-6.9 6.89,-6.2 14.03,-12.5 21.46,-18.7 m -129.85,10.6 c -1.34,0 -2.68,0.1 -4.02,0.1 -4.74,6.2 -9.42,12.3 -14.07,18.5 4.56,-0.1 9.15,-0.3 13.75,-0.4 v 0 c 1.51,-6.1 2.95,-12.1 4.34,-18.2 m -407.79,62.3 c -172.92,51.6 -303.85,126.9 -395.56,194.2 -58.34,42.8 -105.64,85.7 -142.61,123.6 3.69,4.8 7.49,9.6 11.24,14.4 36.73,-37.8 84.08,-80.9 142.84,-123.9 91.34,-67 222.11,-141.9 395.21,-192.7 -3.74,-5.2 -7.44,-10.4 -11.12,-15.6"
         style="fill:#80b260;fill-opacity:1;fill-rule:nonzero;stroke:none"
         id="path98" /><path
         d="m 6062.66,6233.5 c -7.61,0 -15.23,0.2 -22.84,0.7 -155.7,10.2 -293.47,120.2 -384.18,214.3 3.68,5.5 7.24,10.9 10.74,16.2 88.98,-92.7 224.69,-202.6 374.65,-212.4 7.17,-0.5 14.31,-0.7 21.42,-0.7 102.72,0 199.28,48.6 287.46,144.6 v 0 c 2.24,-6.4 4.48,-13 6.7,-19.4 -89.99,-95.2 -188.67,-143.3 -293.95,-143.3 m 325.85,161.7 c -2.06,5.9 -4.04,11.7 -6.03,17.6 v 0 0 c 32.48,4.1 111.97,18.8 192.66,68.7 72.48,45 128.16,106 166.58,182.4 5.13,-3.1 10.21,-5.9 15.1,-8.6 -48.02,-94.6 -114.34,-153.5 -172.86,-189.6 -81.12,-50.1 -159.4,-65.7 -195.45,-70.5 v 0"
         style="fill:#80b260;fill-opacity:1;fill-rule:nonzero;stroke:none"
         id="path100" /><path
         d="m 6074.02,6804.6 c -60.46,0 -127.02,15.3 -190.69,36.9 3.39,5.2 6.83,10.7 10.27,16.2 61.11,-20.4 124.38,-34.8 181.18,-34.8 39.2,0 75.32,6.8 105.53,23.4 v 0 c 2.3,-5.6 4.54,-11.2 6.83,-16.9 -32.86,-17.5 -71.57,-24.8 -113.12,-24.8 m 145.68,40.8 c -2.24,5.6 -4.53,11.2 -6.82,16.8 v 0 0 c 21.79,8.8 62.98,28.3 103.58,62.8 5.12,4.3 10.07,8.8 14.85,13.3 4.95,-3.8 9.78,-7.3 14.38,-10.6 -47.91,-46.2 -99.72,-71.5 -125.99,-82.3 v 0"
         style="fill:#80b260;fill-opacity:1;fill-rule:nonzero;stroke:none"
         id="path102" /><path
         d="m 6580.58,4938.4 c -0.36,-7.1 -0.66,-14.1 -1.1,-21.1 -5.78,-114.7 -12.97,-229.5 -19.86,-339.4 -5.44,-87 -10.81,-172.9 -15.28,-255.3 v -0.1 c -15.76,-288 -20.78,-532.1 19.51,-625.8 l -33.28,-14.3 c -45.96,106.9 -38.17,372.2 -19.33,696.4 3.75,65 7.97,132.4 12.26,201.4 6.64,106.8 13.65,218.3 19.38,329.8 0.44,8.4 0.86,16.7 1.28,25.1 8.39,167.5 13.77,334.1 11.05,484.2 -0.18,6.3 -0.31,12.6 -0.42,18.9 -0.91,39.6 -2.42,78 -4.6,114.9 -6.51,110.1 -28.02,234.9 -58.95,365.4 -1.39,6.1 -2.83,12.1 -4.34,18.2 -34.85,144.1 -80.75,294.6 -130.29,440.1 -2.22,6.4 -4.46,13 -6.7,19.4 -53.45,155.7 -110.77,304.9 -162.77,433.2 -2.29,5.7 -4.53,11.3 -6.83,16.9 -54.29,133.3 -102.2,242.8 -133,311.6 3.27,12.5 5.03,23.7 5.03,33.2 0,5.8 -0.68,11.1 -2.06,15.6 0,0 10.63,-11.4 28.19,-29.9 30.7,-68.4 79.25,-179.1 134.41,-314.6 2.29,-5.6 4.58,-11.2 6.82,-16.8 51.88,-128.1 109.13,-277 162.78,-432.6 1.99,-5.9 3.97,-11.7 6.03,-17.6 52,-152.4 100.26,-310.7 136.32,-461.7 1.51,-6.4 3.01,-12.7 4.47,-18.9 29.89,-128.2 50.62,-250.8 57.08,-359.4 2.23,-37.9 3.8,-77.4 4.71,-118.2 0.11,-6.5 0.24,-13.1 0.36,-19.7 2.59,-148.9 -2.66,-313.5 -10.87,-478.9"
         style="fill:#3e722e;fill-opacity:1;fill-rule:nonzero;stroke:none"
         id="path104" /><path
         d="m 6640.61,4824.7 c 67.12,3.1 123.49,-34.9 125.89,-85.1 2.39,-50.1 -50.14,-93.4 -117.26,-96.6 -67.11,-3.2 -123.5,34.9 -125.89,85.1 -2.39,50.1 50.08,93.4 117.26,96.6 m 650.66,-290.9 c 25.81,40.4 132.84,18.3 239.02,-49.5 106.21,-67.7 171.4,-155.5 145.57,-196 -25.8,-40.4 -132.82,-18.2 -239.02,49.5 -106.25,67.8 -171.37,155.5 -145.57,196 m -409.71,1663.3 c -29.03,-6.2 -63.13,38.4 -76.06,99.5 -12.92,61.2 0.16,115.7 29.2,121.8 29.1,6.2 63.15,-38.3 76.06,-99.5 12.92,-61.1 -0.16,-115.7 -29.2,-121.8 m 478.52,-610.6 c -60.29,16.6 -102.79,53.1 -94.92,81.6 7.83,28.6 63.06,38.3 123.28,21.8 60.29,-16.6 102.77,-53.1 94.96,-81.6 -7.88,-28.6 -63.04,-38.3 -123.32,-21.8 m -109.19,-347.9 c 29.95,40.3 107.76,33.2 173.8,-16 66.05,-49.1 95.2,-121.6 65.25,-161.9 -30,-40.3 -107.83,-33.1 -173.82,16 -66.04,49.2 -95.26,121.7 -65.23,161.9 m -458.03,-22.5 c 54.48,17.1 106.43,6 116.03,-24.7 9.59,-30.7 -26.7,-69.4 -81.16,-86.4 -54.46,-17.1 -106.43,-6.1 -116.03,24.6 -9.6,30.7 26.75,69.4 81.16,86.5 m -974,358 c 0,0 92.98,-216.1 79.82,-488.2 -0.29,-6.4 -0.67,-12.9 -1.11,-19.4 -4.2,-63.2 -14.25,-129.1 -32.6,-195.9 -100.06,-363.8 609.11,-706.4 949.73,-609.9 69.96,19.9 112.84,59.8 138.15,94.5 l 0.03,0.1 c 10.43,14.2 17.85,27.4 23,38.2 h 0.01 c 7.3,15.3 10.05,25.3 10.05,25.3 0,0 3.26,-5 9.52,-14.2 89.18,-129.7 788.11,-1082.5 1380.95,23.6 3.16,5.9 6.33,11.9 9.5,17.9 62.83,119.8 124.43,262.9 183.89,432.9 0,0 -340.37,-270.1 -655.53,-213 -315.15,57.2 -326.95,214.3 -318.79,259.3 8.15,45 97.87,78.4 259.99,49 162.06,-29.4 305.67,-297.5 721.79,100 0,0 -1.75,211.2 -53.23,435.9 -1.38,6.2 -2.83,12.4 -4.35,18.6 -26.99,112.2 -66.58,226.4 -124.78,318.1 0,0 -464.11,-473.9 -785.13,-260.7 0,0 -38.48,78.3 330.95,98.1 369.38,19.9 444.53,263.6 444.53,263.6 0,0 -46.29,77.8 -97.02,173.5 -2.77,5.4 -5.65,10.8 -8.47,16.2 -25.7,49.2 -51.97,102.1 -73.36,151.1 -2.66,6 -5.21,11.9 -7.7,17.8 -28.82,68.6 -46.38,127.1 -36.89,153.1 0,0 -318.68,-389.8 -449.94,-156.2 -131.26,233.6 251.31,86.8 386.8,304 0,0 -20.43,45.1 -46.27,108.5 -2.39,5.8 -4.8,11.8 -7.21,17.8 -41.25,102.6 -92.13,242.9 -97.73,322.8 -0.96,12.9 -0.7,24.2 0.99,33.5 1.04,5.8 2.64,10.9 4.81,15 0,0 -12.51,-9.3 -33.09,-24.3 -63.11,-45.9 -202.39,-144.8 -291.31,-189.7 -5.54,-2.8 -10.92,-5.4 -16.01,-7.8 -14.4,-6.6 -26.98,-11.3 -37.09,-13.6 0,0 -14.38,-164.4 15.27,-188.7 -3.61,1.7 -119.29,60.4 -111.85,169 0,0 -179.65,-110.7 -303.08,-155.7 -5.59,-2.1 -11.09,-4 -16.38,-5.8 -30.94,-10.1 -57.21,-15.2 -74.68,-12 0,0 -65.1,-239.3 172.07,-350.5 0,0 134.66,-232.1 -183.25,-155.9 0,0 -161.64,168.8 -131.25,439.2 0,0 -287.44,-93.5 -440.21,-203.5 -5.1,-3.7 -10.05,-7.4 -14.91,-11.1 -28.08,-21.8 -50.48,-44.2 -63.91,-66.5 0,0 -46.71,-360.4 421.06,-550.6 0,0 130.43,-67.1 57.15,-180.8 -73.35,-113.9 -521.66,389 -602.86,642.4 0,0 -134.25,-136.5 -233.75,-284.9 -3.53,-5.3 -7.01,-10.6 -10.43,-15.9 -46.38,-71.4 -83.38,-144.4 -92.48,-205.5 0,0 159.83,-366.9 474.7,-340.2 0,0 216.6,32 134.11,-235.2 -82.53,-267.1 -323.84,129.2 -402.66,190.4 -78.78,61.2 -349.56,226.3 -349.56,226.3"
         style="fill:#64c431;fill-opacity:1;fill-rule:nonzero;stroke:none"
         id="path106" /><path
         d="m 8376.41,4428.2 c -102.53,2.6 -252.94,12.3 -418.93,42.4 -5.52,1 -11.11,2 -16.69,3.1 -182.4,34.3 -346.11,86.4 -486.69,154.8 -163.97,79.8 -296.69,182.1 -395.08,304.4 -5.71,7.1 -11.34,14.3 -16.84,21.6 -4.16,-2 -10.1,-4.6 -17.85,-7.8 -50.08,-20.3 -174.99,-61.2 -367.68,-61.6 -0.82,0 -1.62,0 -2.44,0 -175.62,0 -434.11,35.7 -756.64,181.4 0.44,6.5 0.82,13 1.11,19.4 322.77,-146.9 580.8,-182.7 755.5,-182.7 0.34,0 0.69,0 1.03,0 202.53,0.2 331.36,47.2 371.8,64.4 8.9,3.8 13.5,6.1 13.77,6.3 l 6.85,3.5 4.59,-6.2 c 3.3,-4.4 6.67,-8.8 10.05,-13.3 224.4,-290 602.07,-413.7 881.45,-466.4 176.7,-33.3 337.03,-43.1 442.19,-45.4 -3.17,-6 -6.34,-12 -9.5,-17.9 v 0"
         style="fill:#93d563;fill-opacity:1;fill-rule:nonzero;stroke:none"
         id="path108" /><path
         d="m 7760.43,5273.8 c -12.9,0 -25.82,0.2 -38.71,0.6 -61.05,1.9 -121.81,8.4 -182.19,19.3 -136.45,24.7 -271.01,72.4 -401.81,142.6 -5.32,2.9 -10.67,5.8 -15.98,8.7 -3.85,-0.9 -10.63,-2.5 -20.04,-4.2 -22.62,-4.1 -60.62,-9.1 -111.31,-9.1 -69.35,0 -162.45,9.4 -272.27,43.3 -140.77,43.6 -279.79,118.8 -413.07,223.7 -85.89,67.6 -169.48,147.7 -250.3,239.6 3.42,5.3 6.9,10.6 10.43,15.9 250.33,-285.2 487.17,-408.7 656.96,-461.4 107.61,-33.5 199.62,-42.6 268.03,-42.6 55.35,0 95.25,6 115.4,9.9 9.54,1.8 14.65,3.3 14.9,3.3 l 3.62,1 3.24,-1.8 c 4.73,-2.6 9.49,-5.2 14.18,-7.8 221.91,-120 432.86,-162.1 619.57,-162.1 174.24,0 327.38,36.7 448.6,80.8 127.1,46.3 232.85,105.2 310,155.3 1.52,-6.2 2.97,-12.4 4.35,-18.6 -77.56,-50.1 -182.26,-107.8 -307.45,-153.5 -151.08,-55.1 -304.28,-82.9 -456.15,-82.9"
         style="fill:#93d563;fill-opacity:1;fill-rule:nonzero;stroke:none"
         id="path110" /><path
         d="m 7541.32,5895.9 c -78.36,0 -162.34,6.1 -251.66,20.2 -5.19,0.8 -10.38,1.6 -15.62,2.5 -0.69,0 -1.75,0 -3.16,0 -3.88,0 -10.42,0.1 -19.35,0.4 -22.47,1 -59.94,4 -107.36,12.6 -67.51,12.2 -155.29,35.9 -248.52,81.7 -118.43,58.1 -222.67,140.1 -309.77,243.4 -35.72,42.4 -68.56,88.4 -98.39,137.9 4.86,3.7 9.81,7.4 14.91,11.1 122.31,-202.3 275.44,-314.2 400.44,-375.7 163.94,-80.8 310.24,-91.7 356.45,-93.2 4.3,-0.1 7.72,-0.1 10.22,-0.1 3.08,0 4.76,0 4.93,0 l 1.76,-0.1 c 7.04,-1.1 14.07,-2.3 20.99,-3.3 86.62,-13.5 168.05,-19.3 244.14,-19.3 252.77,0 446.61,64.3 575.77,127.1 65.5,31.9 119.77,65.9 162.66,96.5 2.82,-5.4 5.7,-10.8 8.47,-16.2 -43.12,-30.6 -97.31,-64.5 -162.34,-96.1 -131.12,-64 -327.98,-129.4 -584.57,-129.4"
         style="fill:#93d563;fill-opacity:1;fill-rule:nonzero;stroke:none"
         id="path112" /><path
         d="m 7832.97,6143.9 c -14.24,0 -28.55,0.8 -42.82,2.4 -7.59,0.8 -15.11,1.9 -22.6,3.3 -103.59,18.8 -192.11,83.7 -263.7,193.4 -4.09,6.2 -8.09,12.6 -12.01,19.1 -3.41,0.9 -8.9,2.4 -16.1,4.7 -34.62,11.2 -108.85,40.5 -179.73,104.3 -51.15,45.9 -105.91,115.7 -136.29,217.3 5.29,1.8 10.79,3.7 16.38,5.8 24.19,-82 68.12,-151.9 131.4,-209.1 70.5,-63.6 146.1,-92.2 177.33,-102 9.23,-2.9 14.65,-4.2 14.89,-4.3 l 3.77,-0.8 1.98,-3.3 c 2.78,-4.6 5.57,-9.3 8.45,-13.7 74.45,-117.9 168.05,-184 278.26,-196.7 13.28,-1.5 26.57,-2.3 39.88,-2.3 136.27,0 271.82,75.8 366.64,144.5 2.49,-5.9 5.04,-11.8 7.7,-17.8 -96.28,-69.5 -233.04,-144.8 -373.43,-144.8"
         style="fill:#93d563;fill-opacity:1;fill-rule:nonzero;stroke:none"
         id="path114" /><path
         d="m 7939.82,6706.9 c -28.28,0 -55.77,2 -81.61,6.7 -40.9,7.4 -77.68,21.5 -106.89,44.6 -5.11,3.9 -10,8.2 -14.57,12.8 -2.29,1.2 -7.47,4.2 -14.61,8.8 -23.93,15.3 -70.42,49.4 -109.29,103.4 5.09,2.4 10.47,5 16.01,7.8 3.89,-5.2 7.98,-10.5 12.25,-15.7 33.79,-41.2 70.84,-67.7 90.73,-80.3 8.91,-5.7 14.36,-8.5 14.52,-8.6 l 1.24,-0.6 1.03,-1.1 c 3.95,-4 8.07,-7.6 12.41,-11.1 43.76,-35.4 107.64,-48.2 177.34,-48.2 34.75,0 70.96,3.2 106.81,8.3 2.41,-6 4.82,-12 7.21,-17.8 -37.6,-5.6 -75.76,-9 -112.58,-9"
         style="fill:#93d563;fill-opacity:1;fill-rule:nonzero;stroke:none"
         id="path116" /><path
         d="m 7027.01,4967.6 c -0.9,-7 -1.85,-13.9 -2.68,-20.9 -14.76,-114 -28.15,-228.2 -40.97,-337.5 -10.16,-86.6 -20.2,-172.1 -30.48,-253.9 l -0.03,-0.1 c -35.83,-286.2 -74.43,-527.4 -130.77,-612.3 l 30.2,-20 c 64.28,97 103.91,359.4 143.18,681.7 7.9,64.7 15.76,131.7 23.84,200.4 12.51,106.2 25.5,217.2 39.73,327.9 1.08,8.4 2.15,16.7 3.24,25 21.59,166.3 46.01,331.2 75.45,478.4 1.31,6.2 2.55,12.4 3.79,18.5 7.96,38.9 16.29,76.4 25,112.2 26.06,107.3 69.45,226.2 123.15,349.1 2.46,5.7 4.96,11.4 7.53,17.2 59.98,135.5 131.98,275.4 206.66,409.7 3.35,6 6.72,12 10.07,18 80.34,143.6 163.35,280.2 237.4,397.2 3.27,5.2 6.47,10.3 9.72,15.4 77.2,121.5 143.85,220.7 186.42,282.9 -0.96,12.9 -0.7,24.2 0.99,33.5 1.04,5.8 2.64,10.8 4.8,15 0,0 -12.5,-9.3 -33.07,-24.3 -42.39,-61.9 -109.91,-162.2 -188.34,-285.7 -3.25,-5.1 -6.5,-10.1 -9.7,-15.2 -73.9,-116.9 -156.78,-253.1 -237.3,-396.7 -3.01,-5.4 -6.02,-10.8 -9.1,-16.3 -78.34,-140.7 -154.05,-287.8 -216.45,-430 -2.62,-6 -5.23,-11.9 -7.76,-17.8 -52.28,-120.8 -94.52,-237.7 -120.25,-343.4 -8.95,-36.9 -17.55,-75.5 -25.71,-115.5 -1.28,-6.4 -2.57,-12.8 -3.87,-19.3 -29.1,-146 -53.28,-309 -74.69,-473.2"
         style="fill:#529f35;fill-opacity:1;fill-rule:nonzero;stroke:none"
         id="path118" /><path
         d="m 7249.05,2589 h -1104.7 c -57.79,0 -106.32,43.5 -112.58,101 l -107.63,987.6 c -7.3,67 45.18,125.5 112.58,125.5 h 1319.95 c 67.4,0 119.89,-58.5 112.58,-125.5 L 7361.62,2690 c -6.26,-57.5 -54.78,-101 -112.57,-101"
         style="fill:#d58a18;fill-opacity:1;fill-rule:nonzero;stroke:none"
         id="path120" /><path
         d="M 7540.94,3477 H 5868.39 c -44.8,0 -81.13,36.3 -81.13,81.1 V 3722 c 0,44.8 36.33,81.1 81.13,81.1 h 1672.55 c 44.81,0 81.14,-36.3 81.14,-81.1 v -163.9 c 0,-44.8 -36.33,-81.1 -81.14,-81.1"
         style="fill:#f9a70d;fill-opacity:1;fill-rule:nonzero;stroke:none"
         id="path122" /><path
         d="m 28337.2,6721 h -1112.5 c -21.6,0 -39.3,17.7 -39.3,39.3 0,21.5 17.7,39.2 39.3,39.2 h 1112.5 c 21.6,0 39.2,-17.7 39.2,-39.2 0,-21.6 -17.6,-39.3 -39.2,-39.3"
         style="fill:#d8d7d6;fill-opacity:1;fill-rule:nonzero;stroke:none"
         id="path124" /><path
         d="M 27196.4,6860.1 26952.8,8157 c -4.5,24.2 -25.6,41.7 -50.2,41.7 h -841.5 c -31.9,0 -56.1,-29 -50.2,-60.4 l 240.4,-1297 c 4.5,-24.2 25.6,-41.8 50.2,-41.8 h 844.6 c 32,0 56.2,29.1 50.3,60.6"
         style="fill:#d8d7d6;fill-opacity:1;fill-rule:nonzero;stroke:none"
         id="path126" /><path
         d="M 27174,6860.1 26930.4,8157 c -4.5,24.2 -25.6,41.7 -50.2,41.7 h -841.4 c -32,0 -56.1,-29 -50.3,-60.4 l 240.4,-1297 c 4.5,-24.2 25.7,-41.8 50.3,-41.8 h 844.6 c 32,0 56.1,29.1 50.2,60.6"
         style="fill:#ebebea;fill-opacity:1;fill-rule:nonzero;stroke:none"
         id="path128" /><path
         d="m 27192.8,6721 h -920.3 c -19.7,0 -35.8,16.1 -35.8,35.8 v 6.9 c 0,19.7 16.1,35.8 35.8,35.8 h 920.3 c 19.7,0 35.8,-16.1 35.8,-35.8 v -6.9 c 0,-19.7 -16.1,-35.8 -35.8,-35.8"
         style="fill:#ebebea;fill-opacity:1;fill-rule:nonzero;stroke:none"
         id="path130" /><path
         d="m 27387.4,6743.1 h -98.4 c -10,0 -18.3,8.2 -18.3,18.3 0,10 8.3,18.2 18.3,18.2 h 98.4 c 10,0 18.3,-8.2 18.3,-18.2 0,-10.1 -8.3,-18.3 -18.3,-18.3"
         style="fill:#b5b5b4;fill-opacity:1;fill-rule:nonzero;stroke:none"
         id="path132" /><path
         d="m 27554.9,6743.1 h -98.4 c -10,0 -18.2,8.2 -18.2,18.3 0,10 8.2,18.2 18.2,18.2 h 98.4 c 10,0 18.3,-8.2 18.3,-18.2 0,-10.1 -8.3,-18.3 -18.3,-18.3"
         style="fill:#b5b5b4;fill-opacity:1;fill-rule:nonzero;stroke:none"
         id="path134" /><path
         d="m 26983,4274.4 c 0,0 -227.1,-284.4 -496.7,-252.6 0,0 -27.6,-159.2 152.9,-191 180.4,-31.9 435.1,0 435.1,0 l 239.9,339.6 -331.2,104"
         style="fill:#e9d5ba;fill-opacity:1;fill-rule:nonzero;stroke:none"
         id="path136" /><path
         d="m 26486.3,4021.8 c 0,0 -452.1,19.1 -543.4,67.9 0,0 -89.1,8.5 27.6,-123.1 116.7,-131.6 515.2,-365.1 902.9,-303.5 l -34.7,-180.5 60.8,-29.7 181.6,387.5 c 0,0 -318.8,-92.4 -594.8,181.4"
         style="fill:#8f191e;fill-opacity:1;fill-rule:nonzero;stroke:none"
         id="path138" /><path
         d="m 28940.1,9426.7 c 0,0 -151.2,323.3 237.5,399.6 388.6,76.3 577.5,-203.4 635.6,-421.4 0,0 468.6,123.5 515.8,-454 0,0 919.1,-345.1 83.6,-1151.5 l -646.6,193.8 -359.6,1128.4 -348.7,243.4 -117.6,61.7"
         style="fill:#a45c27;fill-opacity:1;fill-rule:nonzero;stroke:none"
         id="path140" /><path
         d="m 28951.1,9629.6 c 0,0 -82.3,-505.4 197.6,-873 0,0 203,65.9 257.8,0 27.5,-32.9 74.9,-126.9 107.8,-209.2 0,0 -63.3,-26.7 -62.5,-34.4 6.5,-57.4 7,-52.5 7,-52.5 l 474.5,96.5 c 0,0 -225,413.6 -252.4,687.9 -27.5,274.4 -109.8,510.3 -356.7,474.7 -246.9,-35.7 -373.1,-90 -373.1,-90"
         style="fill:#e9d5ba;fill-opacity:1;fill-rule:nonzero;stroke:none"
         id="path142" /><path
         d="m 29292.5,9510.6 c 0,0 394.4,-329.9 528.4,-662.4 l 163.8,280.4 -346.1,367.2 -321.3,166.2 -24.8,-151.4"
         style="fill:#a45c27;fill-opacity:1;fill-rule:nonzero;stroke:none"
         id="path144" /><path
         d="m 28951.1,9629.6 c 0,0 41.2,-459.9 785.8,-570.8 l -29.2,481.8 -198.5,189.8 -216.7,43.8 -225.7,-38 -115.7,-106.6"
         style="fill:#a45c27;fill-opacity:1;fill-rule:nonzero;stroke:none"
         id="path146" /><path
         d="m 30725.5,4489.1 h -987.4 v 135.5 h 986.1 c 27.6,0.7 555,23.2 555,645.6 0,326.1 -101.2,453 -208.4,587.3 -118.4,148.5 -240.9,302 -240.9,685 h 135.4 c 0,-335.6 102.7,-464.2 211.4,-600.5 117,-146.6 237.9,-298.3 237.9,-671.8 0,-395.2 -187.4,-587.3 -344.6,-678.7 -168.8,-98.3 -336.9,-102.2 -343.9,-102.3 l -0.6,-0.1"
         style="fill:#2f2d2e;fill-opacity:1;fill-rule:nonzero;stroke:none"
         id="path148" /><path
         d="m 28810.7,3874 c 0,0 327.9,-659.4 187.3,-780.1 -147.2,-126.5 -406.8,-35.3 -406.8,-35.3 0,0 66.6,254.8 -94.1,744.8 l 313.6,70.6"
         style="fill:#e9d5ba;fill-opacity:1;fill-rule:nonzero;stroke:none"
         id="path150" /><path
         d="m 28998,6208.2 -1163.2,-869.9 c 0,0 608.4,-1488.9 619.1,-1771.7 0,0 304.1,21.3 464.2,144.1 l -426.8,1344.8 1627.8,252.8 -58.9,670.5 -352.2,272.1 -710,-42.7"
         style="fill:#8e331c;fill-opacity:1;fill-rule:nonzero;stroke:none"
         id="path152" /><path
         d="m 28168.1,6927.2 c 0,0 -57.2,-92.3 -285.1,-62.8 0,0 -200.6,-25.3 -264.6,-88.2 0,0 -18.9,0.8 26.5,59.6 45.4,58.8 187.2,261.6 447.6,208.7 l 112.6,-41.7 -37,-75.6"
         style="fill:#e9d5ba;fill-opacity:1;fill-rule:nonzero;stroke:none"
         id="path154" /><path
         d="m 28103,7040.6 c 0,0 67.6,-50.1 57.2,-125.9 0,0 704.1,-169.7 775,-158.5 71,11.2 469,462.8 469,462.8 l -318.2,244.7 c 0,0 -111.1,-441.4 -214,-461.6 -102.8,-20.1 -769,38.5 -769,38.5"
         style="fill:#8f191e;fill-opacity:1;fill-rule:nonzero;stroke:none"
         id="path156" /><path
         d="m 29514.3,8547.4 c 0,0 -24.7,-146 387.2,56 l 306.6,-491.9 c 0,0 -98.1,-1131.6 -54.5,-1355.9 43.6,-224.2 152.6,-663.7 152.6,-663.7 0,0 -1122.5,-134.4 -1307.7,76.3 l 159.8,890.7 -21.8,856.5 127.2,388.7 250.6,243.3"
         style="fill:#234465;fill-opacity:1;fill-rule:nonzero;stroke:none"
         id="path158" /><path
         d="m 29513.9,8547.4 c 0,0 -348.8,-325.3 -308.8,-1348.6 40,-1023.4 -232.5,-1074.2 -232.5,-1074.2 l -54.5,25.4 c 0,0 221.6,789.6 178,1212.1 -43.6,422.5 -94.4,992.8 417.8,1185.3"
         style="fill:#bb2723;fill-opacity:1;fill-rule:nonzero;stroke:none"
         id="path160" /><path
         d="m 28972.7,6662.3 c 0,0 -125.3,-91.7 -411.5,69.3 0,0 -279.5,73.8 -398,24.6 0,0 -24.6,11.2 67.1,64.8 91.7,53.7 388,246.6 704.9,37.2 l 126.9,-115.4 -89.4,-80.5"
         style="fill:#e9d5ba;fill-opacity:1;fill-rule:nonzero;stroke:none"
         id="path162" /><path
         d="m 30305.7,6091.9 -2495.3,-41.5 c -27.4,-0.5 -52.1,-16.7 -63.3,-41.6 -118.5,-262.9 -773.5,-1705.3 -899.6,-1753.8 l 443,-309.5 676.1,1487.4 c 0,0 1885.5,-297.3 2227.1,-94.6 435.3,258.5 112,753.6 112,753.6"
         style="fill:#9d3d1e;fill-opacity:1;fill-rule:nonzero;stroke:none"
         id="path164" /><path
         d="m 28599.6,3110.2 c 0,0 -204.4,-396.6 -373,-498.5 0,0 -35.2,-58.8 105.9,-23.5 141.1,35.3 703.3,395.9 703.3,395.9 l 99.1,-194.8 48.2,28.5 -152.2,425.1 c 0,0 -35.4,-136.6 -431.3,-132.7"
         style="fill:#8f191e;fill-opacity:1;fill-rule:nonzero;stroke:none"
         id="path166" /><path
         d="m 29905.8,8609.7 c 0,0 -469.6,-182.1 -469.6,-1216.4 0,-1034.4 -88.8,-1592.9 -88.8,-1592.9 0,0 684.2,385 1074,160.8 0,0 -202.5,520.4 -143.3,981.5 59.3,461.2 214.7,1171.6 7,1390.8 -207.7,219.2 -379.3,276.2 -379.3,276.2"
         style="fill:#bb2723;fill-opacity:1;fill-rule:nonzero;stroke:none"
         id="path168" /><path
         d="m 30197,8382.4 c 0,0 571.6,-136.6 -129.4,-1980.7 0,0 -248,-86.3 -1118,244.4 0,0 57.5,129.5 -14.4,212.1 l 762.1,-107.8 c 0,0 284,514.1 143.8,1322.9 0,0 140.2,301.9 355.9,309.1"
         style="fill:#8f191e;fill-opacity:1;fill-rule:nonzero;stroke:none"
         id="path170" /><path
         d="m 30096,4597.6 c 0,-78.7 -165.5,-183.3 -363.1,-183.3 -197.7,0 -352.7,104.6 -352.7,183.3 0,78.7 155,101.8 352.7,101.8 197.6,0 363.1,-23.1 363.1,-101.8"
         style="fill:#2f2d2e;fill-opacity:1;fill-rule:nonzero;stroke:none"
         id="path172" /><path
         d="m 30520.9,4718.4 h -1565.6 c -151.8,0 -275.9,124.2 -275.9,275.9 0,151.8 124.1,275.9 275.9,275.9 h 1565.6 c 151.7,0 275.8,-124.1 275.8,-275.9 0,-151.7 -124.1,-275.9 -275.8,-275.9"
         style="fill:#42a0d0;fill-opacity:1;fill-rule:nonzero;stroke:none"
         id="path174" /><path
         d="m 30545.1,4597.6 h -1572.9 c -29.7,0 -54.1,24.3 -54.1,54.1 v 12.7 c 0,29.7 24.4,54 54.1,54 h 1572.9 c 29.7,0 54,-24.3 54,-54 v -12.7 c 0,-29.8 -24.3,-54.1 -54,-54.1"
         style="fill:#2f2d2e;fill-opacity:1;fill-rule:nonzero;stroke:none"
         id="path176" /><path
         d="m 29741.5,3210.6 v 10.2 c -49.3,0 -89.6,40.4 -89.6,89.6 v 1137.4 c 0,49.3 40.3,89.6 89.6,89.6 49.2,0 89.5,-40.3 89.5,-89.6 V 3310.4 c 0,-49.2 -40.3,-99.8 -89.5,-99.8"
         style="fill:#2f2d2e;fill-opacity:1;fill-rule:nonzero;stroke:none"
         id="path178" /><path
         d="m 30432.4,2805.8 -701,404.8 c -40.2,23.1 -54,74.9 -30.9,115 23.2,40.1 75,54 115.1,30.8 l 701,-404.7 c 40.2,-23.2 54,-75 30.9,-115.1 -23.2,-40.1 -75,-53.9 -115.1,-30.8"
         style="fill:#2f2d2e;fill-opacity:1;fill-rule:nonzero;stroke:none"
         id="path180" /><path
         d="m 29048.6,2805.8 701,404.8 c 40.1,23.1 54,74.9 30.9,115 -23.2,40.1 -75,54 -115.1,30.8 l -701.1,-404.7 c -40.1,-23.2 -53.9,-75 -30.8,-115.1 23.2,-40.1 74.9,-53.9 115.1,-30.8"
         style="fill:#2f2d2e;fill-opacity:1;fill-rule:nonzero;stroke:none"
         id="path182" /><path
         d="m 30829.4,2812.7 c 0,-132.8 -107.6,-240.5 -240.4,-240.5 -132.8,0 -240.5,107.7 -240.5,240.5 0,132.7 107.7,240.4 240.5,240.4 132.8,0 240.4,-107.7 240.4,-240.4"
         style="fill:#2f2d2e;fill-opacity:1;fill-rule:nonzero;stroke:none"
         id="path184" /><path
         d="m 30724.9,2812.7 c 0,-75.1 -60.8,-136 -135.9,-136 -75.1,0 -136,60.9 -136,136 0,75.1 60.9,135.9 136,135.9 75.1,0 135.9,-60.8 135.9,-135.9"
         style="fill:#58595b;fill-opacity:1;fill-rule:nonzero;stroke:none"
         id="path186" /><path
         d="m 29189.6,2812.7 c 0,-132.8 -107.6,-240.5 -240.4,-240.5 -132.8,0 -240.4,107.7 -240.4,240.5 0,132.7 107.6,240.4 240.4,240.4 132.8,0 240.4,-107.7 240.4,-240.4"
         style="fill:#2f2d2e;fill-opacity:1;fill-rule:nonzero;stroke:none"
         id="path188" /><path
         d="m 29085.1,2812.7 c 0,-75.1 -60.8,-136 -135.9,-136 -75.1,0 -136,60.9 -136,136 0,75.1 60.9,135.9 136,135.9 75.1,0 135.9,-60.8 135.9,-135.9"
         style="fill:#58595b;fill-opacity:1;fill-rule:nonzero;stroke:none"
         id="path190" /><path
         d="m 31412.9,7537.2 c -65.5,-196.1 -225,-781.6 -7,-1314.7 13.9,-34 -11.1,-71.2 -47.9,-71.2 h -593 c -18,0 -34.9,9.3 -44.2,24.8 -52.6,87.8 -194,431.4 8.7,1388.2 5,24 26.1,41.1 50.6,41.1 h 583.8 c 35.3,0 60.2,-34.6 49,-68.2"
         style="fill:#3587aa;fill-opacity:1;fill-rule:nonzero;stroke:none"
         id="path192" /><path
         d="m 31288.9,7526.1 c -67.1,-204.7 -215.1,-771.3 -8.3,-1291.4 15.9,-40 -13.1,-83.4 -56.1,-83.4 h -574.8 c -21.5,0 -41.6,11.3 -52.3,30 -54.6,95.5 -186.5,442.5 10.2,1376 5.9,28 30.7,48.1 59.3,48.1 h 564.3 c 41.2,0 70.5,-40.1 57.7,-79.3"
         style="fill:#42a0d0;fill-opacity:1;fill-rule:nonzero;stroke:none"
         id="path194" /><path
         d="M 28611.2,6555.8 H 12383.7 V 6721 h 16227.5 v -165.2"
         style="fill:#97621d;fill-opacity:1;fill-rule:nonzero;stroke:none"
         id="path196" /><path
         d="M 28611.2,6555.8 H 12383.7 v 82.6 h 16227.5 v -82.6"
         style="fill:#774c16;fill-opacity:1;fill-rule:nonzero;stroke:none"
         id="path198" /><path
         d="m 13554.6,2583 h -131.2 v 3972.8 h 131.2 V 2583"
         style="fill:#82511c;fill-opacity:1;fill-rule:nonzero;stroke:none"
         id="path200" /><path
         d="m 27508.5,2583 h -131.2 v 3972.8 h 131.2 V 2583"
         style="fill:#82511c;fill-opacity:1;fill-rule:nonzero;stroke:none"
         id="path202" /><path
         d="m 20651.8,2583 h -131.2 v 3972.8 h 131.2 V 2583"
         style="fill:#82511c;fill-opacity:1;fill-rule:nonzero;stroke:none"
         id="path204" /><path
         d="m 35135.2,5285.5 c -1.3,-75 -153.3,-846.7 -1474.9,-1350.1 0,0 173.6,298.4 656,638.6 471.6,332.4 780.5,611.8 813.8,705.3 0.8,2.1 1.4,4.2 1.8,6.2 2,8.1 3.5,7.7 3.3,0"
         style="fill:#74c93f;fill-opacity:1;fill-rule:nonzero;stroke:none"
         id="path206" /><path
         d="m 33702.6,3837.2 -0.2,0.1 c -12.8,6.2 -835.5,400.3 -995.9,572.6 -167.3,179.5 -318.6,459.4 -448.7,658.1 -66.9,102.2 -128.2,182.9 -183.3,217.5 -3,2 -6.2,3.8 -9.3,5.5 32.2,-16.9 1066.8,-565.5 1637.4,-1453.8"
         style="fill:#74c93f;fill-opacity:1;fill-rule:nonzero;stroke:none"
         id="path208" /><path
         d="m 35345.1,5938.6 c 0,0 -240.7,-184.9 -288.1,-274.2 -90.3,-170 -393.3,-369 -739.3,-524.1 -213.9,-95.7 -325.2,-173.5 -673.2,-614.1 l 0.5,1 c 16.7,32.5 379.1,729.6 870.6,949.8 503.3,225.6 433.9,367.9 548.4,423.4 114.5,55.6 281.1,38.2 281.1,38.2"
         style="fill:#74c93f;fill-opacity:1;fill-rule:nonzero;stroke:none"
         id="path210" /><path
         d="m 33681.7,4347.8 c -204.8,295.1 -642,520.6 -763.6,597 -121.4,76.3 -277.6,263.8 -409.5,482.4 -131.9,218.6 -593.5,305.4 -593.5,305.4 433.9,111.1 794.8,-121.4 881.6,-260.2 86.8,-138.9 256.8,-322.9 503.2,-503.3 246.5,-180.5 381.8,-621.3 381.8,-621.3"
         style="fill:#74c93f;fill-opacity:1;fill-rule:nonzero;stroke:none"
         id="path212" /><path
         d="m 35303.3,6959.1 c -10.4,-236 -232.5,-760.1 -694.1,-978.7 -454.4,-215.2 -908.8,-659.2 -922.9,-673 l 0.4,0.6 c 4.9,5.7 9.9,12.2 15,19.4 99.9,141.7 249.8,549.6 803.3,823 583.2,288.1 798.3,808.7 798.3,808.7"
         style="fill:#74c93f;fill-opacity:1;fill-rule:nonzero;stroke:none"
         id="path214" /><path
         d="m 31912.3,6597.2 c -11.8,1.3 -18,1.8 -18,1.8 0,0 5.6,0.5 18,-1.8"
         style="fill:#74c93f;fill-opacity:1;fill-rule:nonzero;stroke:none"
         id="path216" /><path
         d="m 33702.6,5148.1 c 0,0 -194.3,-103.6 -897.3,689.8 -471,531.8 -722.6,692.3 -835.4,740.5 l -0.9,0.5 c -25.9,10.9 -44.3,15.9 -56.4,18.3 113.7,-12.7 729.2,-103.9 1040.3,-616 343.2,-565.2 620.7,-756.3 749.3,-832.9 l 0.4,-0.2"
         style="fill:#74c93f;fill-opacity:1;fill-rule:nonzero;stroke:none"
         id="path218" /><path
         d="m 34993.7,7228.9 -0.1,-0.4 -0.6,-1 c -13.7,-31.3 -237.9,-534 -429.6,-779.4 -196.2,-251.5 -819.7,-618.9 -829.5,-624.6 4,7.3 242.4,435.7 579.6,662.7 337.5,227.3 674.9,734.7 680.2,742.7"
         style="fill:#74c93f;fill-opacity:1;fill-rule:nonzero;stroke:none"
         id="path220" /><path
         d="m 33751.4,5750.9 -0.4,0.1 c -18.8,3.1 -624.4,108.7 -1065.1,710 -447.8,610.9 -229.1,659.5 -593.5,1034.3 l 0.3,-0.2 c 13.8,-7.8 456,-264.3 777.1,-964.7 0,0 229.1,-444.9 881.6,-779.5"
         style="fill:#74c93f;fill-opacity:1;fill-rule:nonzero;stroke:none"
         id="path222" /><path
         d="m 34390.1,6929.3 c -147.6,-149.3 -540.3,-539.2 -606.4,-604.8 v -0.1 l -0.4,-0.3 c -6,-5.9 -9.1,-9.1 -9.1,-9.1 0,0 0.3,2.8 1.2,8.1 10,65.6 92.2,514.6 474.3,798.8 406.6,302.4 574.4,791.3 579.6,806.5 v 0.4 c 10.4,-409.5 -277.7,-836.4 -439.2,-999.5"
         style="fill:#74c93f;fill-opacity:1;fill-rule:nonzero;stroke:none"
         id="path224" /><path
         d="m 33783.4,6242.2 -0.8,0.3 c -24.7,10.4 -553.4,236.9 -800.9,721.5 -253.2,496 -340,732 -485.6,850.1 h 0.1 c 14.5,-8.4 479.2,-283.7 731.9,-902.1 0,0 107.4,-228.6 553.9,-668.5 l 1.4,-1.3"
         style="fill:#74c93f;fill-opacity:1;fill-rule:nonzero;stroke:none"
         id="path226" /><path
         d="m 33806.3,6809.9 c -39.2,34.3 -346.7,312.5 -551.2,766.8 -218.3,485.3 -291.4,648.7 -378,683.6 2.7,-0.5 22.2,-4.8 53.3,-16.8 1,-0.4 2,-0.8 3,-1.3 121.3,-47.6 407.9,-209.6 561.2,-707.1 140.3,-455.4 240.4,-631.4 286.8,-695.3 11.9,-16.4 20.2,-25.4 24.9,-29.9"
         style="fill:#74c93f;fill-opacity:1;fill-rule:nonzero;stroke:none"
         id="path228" /><path
         d="m 33810.2,6806.5 v -0.1 l -0.1,0.1 h 0.1"
         style="fill:#74c93f;fill-opacity:1;fill-rule:nonzero;stroke:none"
         id="path230" /><path
         d="m 34362.5,8355.8 0.5,-1.2 -0.5,1.2"
         style="fill:#74c93f;fill-opacity:1;fill-rule:nonzero;stroke:none"
         id="path232" /><path
         d="m 34201.1,7509 c -341.6,-451.1 -397.5,-527 -399.1,-529.2 v 0.2 c 2.5,9.4 82.9,315.7 284.6,653.9 195.9,328.9 296.6,635.5 279,712.9 l -0.6,2.2 c -0.5,2.1 -1.2,3.9 -2,5.6 11,-24 174,-402.4 -161.9,-845.6"
         style="fill:#74c93f;fill-opacity:1;fill-rule:nonzero;stroke:none"
         id="path234" /><path
         d="m 33771.5,3220.8 c -5.9,8.9 -7.8,13.6 -11.2,19.8 -3.4,6.1 -5.4,11.6 -8,17.3 l -7.4,16.9 c -2.2,5.7 -4.1,11.2 -6.1,16.8 -3.9,11.2 -8.4,22.4 -11.7,33.6 l -9.9,33.5 -4.9,16.8 c -1.6,5.6 -2.7,11.2 -4.1,16.8 l -8,33.6 c -2.5,11.2 -5.6,22.4 -7.6,33.6 l -6.3,33.7 -6.3,33.6 c -2.1,11.3 -4.3,22.5 -5.7,33.7 l -9.5,67.5 -4.8,33.7 -3.5,33.7 -6.9,67.5 -3.4,33.8 -2.3,33.7 -4.5,67.6 c -1.4,22.5 -3.2,45 -4.3,67.5 l -2.3,67.5 -2.4,67.5 c -0.7,22.5 -1.8,45 -1.6,67.4 l -0.7,134.9 c 0.4,359.6 23.5,717.9 55.9,1074.9 15.1,178.7 34,356.4 50,534.8 16.2,178.2 32,356.5 44.6,534.9 3,44.6 6.8,89.2 9.1,133.9 l 7.3,133.9 c 3.2,89.3 6.9,178.8 3,267.9 -0.3,22.4 -2.3,44.5 -4.1,66.8 -1.3,22.2 -4.9,44.2 -7.7,66.4 -3.3,22 -7.4,43.9 -11.5,65.9 -4.3,22 -8.6,44 -12.4,66.1 -16,88.3 -23,177.7 -28.4,267 7.2,-89.2 16.1,-178.4 33.8,-266 4.3,-21.9 9,-43.8 13.7,-65.7 4.6,-21.9 9.2,-43.9 12.9,-66 3.3,-22.2 7.4,-44.4 9.2,-66.8 2.3,-22.3 4.8,-44.7 5.5,-67.1 5.8,-89.7 3.9,-179.4 2.5,-269 l -4.6,-134.4 c -1.4,-44.8 -4.2,-89.5 -6.3,-134.2 -8.9,-178.9 -21.1,-357.6 -33.6,-536.3 -12.4,-178.6 -27.6,-357.3 -39,-535.6 -25,-356.7 -40.7,-714.2 -33.7,-1070.8 l 3.4,-133.6 c 0.3,-22.3 1.8,-44.5 3,-66.7 l 3.6,-66.7 3.7,-66.6 c 1.5,-22.2 3.7,-44.3 5.6,-66.4 l 5.8,-66.3 2.9,-33.2 4.1,-33 8.1,-65.9 4,-32.9 5.4,-32.7 10.6,-65.3 c 1.6,-10.9 3.9,-21.6 6.2,-32.4 l 6.7,-32.2 6.6,-32.2 c 2.2,-10.7 5.3,-21.1 7.9,-31.7 l 8.2,-31.5 c 1.4,-5.3 2.6,-10.6 4.2,-15.8 l 4.9,-15.3 9.6,-30.7 c 3.2,-10.2 7.4,-19.7 11,-29.6 1.9,-4.9 3.7,-9.9 5.7,-14.6 l 6.3,-13.7 c 2.1,-4.5 4.1,-9.4 6.3,-13 2,-3.6 5,-9.1 5.3,-9.5 15.8,-18.6 13.6,-46.5 -5.1,-62.3 -18.6,-15.8 -46.5,-13.6 -62.3,5.1 -1.1,1.2 -2.1,2.5 -3,3.9 l -1.5,2.2"
         style="fill:#8e531d;fill-opacity:1;fill-rule:nonzero;stroke:none"
         id="path236" /><path
         d="m 33813.7,7844.9 c -59.4,-461.9 -31,-672.8 -28.1,-692.6 l 0.3,-1.5 c 0,0 -170.1,246.4 -156.2,819.1 12,491.3 -65.5,665.9 -87.8,705.5 -0.7,1.2 -1.3,2.2 -1.8,3.1 l -1.3,2.2 c -0.8,1.4 -1.5,2.4 -2.1,3.1 l -0.4,0.7 c 11.8,-12.3 338.8,-362.4 277.4,-839.6"
         style="fill:#74c93f;fill-opacity:1;fill-rule:nonzero;stroke:none"
         id="path238" /><g
         id="g240"><g
           id="g242"
           clip-path="url(#clipPath246)"><path
             d="m 35130.1,5279.3 h 1.797 v 6.1992 h -1.797 z"
             style="fill:#d9d5d4;fill-opacity:1;fill-rule:nonzero;stroke:none"
             id="path248" /></g></g><path
         d="m 33709.2,3954.3 c -0.3,3.5 -0.6,6.9 -0.8,10.4 236.3,146.3 1270.5,810 1421.7,1314.6 v 0 c 0.8,2.1 1.4,4.2 1.8,6.2 v 0 h 3.3 c -1.3,-74.1 -149.5,-827.6 -1426,-1331.2"
         style="fill:#68ae3e;fill-opacity:1;fill-rule:nonzero;stroke:none"
         id="path250" /><path
         d="m 33660.3,3935.4 c 0,0 17.3,10.2 48.1,29.3 0.2,-3.5 0.5,-6.9 0.8,-10.4 v 0 c -16.1,-6.3 -32.4,-12.7 -48.9,-18.9"
         style="fill:#7c4b1f;fill-opacity:1;fill-rule:nonzero;stroke:none"
         id="path252" /><path
         d="m 33641.4,3866.9 c -195.3,95.6 -799.9,397.9 -934.9,543 -167.3,179.5 -318.6,459.4 -448.7,658.1 556.8,-627.7 1186.6,-1062.6 1383,-1191.2 l 0.6,-9.9"
         style="fill:#68ae3e;fill-opacity:1;fill-rule:nonzero;stroke:none"
         id="path254" /><path
         d="m 33702.4,3837.3 c -2,1 -24.3,11.6 -61,29.6 v 0 l -0.6,9.9 c 37.7,-24.8 59.5,-38.2 61.6,-39.5"
         style="fill:#7c4b1f;fill-opacity:1;fill-rule:nonzero;stroke:none"
         id="path256" /><path
         d="m 35343.6,5938.7 c -0.7,0.1 -1.6,0.2 -2.8,0.3 1.4,0.3 2.8,0.6 4.2,0.9 0,0 -0.5,-0.4 -1.4,-1.2"
         style="fill:#d9d5d4;fill-opacity:1;fill-rule:nonzero;stroke:none"
         id="path258" /><path
         d="m 33693.3,4588.9 c 0,4.6 0.1,9.3 0.1,13.9 115.1,170.7 414.2,579.9 704.4,688.2 369.4,138 593.7,425.7 609.6,441.6 15.7,15.8 165.1,169.6 333.4,206.4 1.2,-0.1 2.1,-0.2 2.8,-0.3 -20.2,-15.5 -241.4,-187.8 -286.7,-273 -90.2,-170.1 -393.3,-369 -739.3,-524.1 -203.5,-91.1 -314.2,-165.9 -624.3,-552.7"
         style="fill:#68ae3e;fill-opacity:1;fill-rule:nonzero;stroke:none"
         id="path260" /><path
         d="m 33644.4,4527.5 0.6,1 c 3.5,5.6 20.6,33 48.4,74.3 0,-4.6 -0.1,-9.3 -0.1,-13.9 -15.8,-19.7 -32,-40.1 -48.9,-61.4"
         style="fill:#7c4b1f;fill-opacity:1;fill-rule:nonzero;stroke:none"
         id="path262" /><path
         d="m 33629,4416.6 c -219.3,261 -599,457.8 -710.9,528.2 -121.4,76.3 -277.6,263.8 -409.5,482.4 -131.9,218.6 -593.5,305.4 -593.5,305.4 0,0 470.2,-13.6 567.7,-179 97.5,-165.5 394.3,-473.6 625.5,-580.2 185.2,-85.4 415.7,-386.3 520.9,-542 -0.1,-4.9 -0.2,-9.9 -0.2,-14.8"
         style="fill:#68ae3e;fill-opacity:1;fill-rule:nonzero;stroke:none"
         id="path264" /><path
         d="m 33681.7,4347.8 c -16.2,23.4 -33.9,46.3 -52.7,68.8 v 0 c 0,4.9 0.1,9.9 0.2,14.8 26.1,-38.6 44.4,-68.3 52.5,-83.6"
         style="fill:#7c4b1f;fill-opacity:1;fill-rule:nonzero;stroke:none"
         id="path266" /><path
         d="m 33726,5345.2 c 0.3,4.7 0.6,9.5 0.9,14.2 115.9,144.4 459.4,546.8 788.7,679.2 404,162.3 771,710.2 787.7,920.5 -10.4,-236 -232.5,-760.1 -694.1,-978.7 C 34228.4,5800 33847.6,5459 33726,5345.2"
         style="fill:#68ae3e;fill-opacity:1;fill-rule:nonzero;stroke:none"
         id="path268" /><path
         d="m 33686.3,5307.4 0.4,0.6 c 1.7,2.3 6.9,9 15,19.4 6.5,8.4 15,19.2 25.2,32 -0.3,-4.7 -0.6,-9.5 -0.9,-14.2 v 0 c -23.6,-22 -37.4,-35.6 -39.7,-37.8"
         style="fill:#7c4b1f;fill-opacity:1;fill-rule:nonzero;stroke:none"
         id="path270" /><path
         d="m 33762,5840.2 c 0.3,4.4 0.7,8.7 1,13 83.1,84.9 326.2,329.6 490.5,461.8 200.6,161.2 599,612.9 739.5,912.5 -13.7,-31.3 -237.9,-534 -429.6,-779.4 -172.7,-221.4 -676.6,-532.7 -801.4,-607.9"
         style="fill:#68ae3e;fill-opacity:1;fill-rule:nonzero;stroke:none"
         id="path272" /><path
         d="m 33733.9,5823.5 c 1.3,1.3 11.7,12 29.1,29.7 -0.3,-4.3 -0.7,-8.6 -1,-13 v 0 c -16.9,-10.2 -26.9,-16.1 -28.1,-16.7"
         style="fill:#7c4b1f;fill-opacity:1;fill-rule:nonzero;stroke:none"
         id="path274" /><path
         d="m 33664.3,5144.1 c -84.9,6.2 -325.4,91.6 -859,693.8 -471,531.8 -722.6,692.3 -835.4,740.5 455.8,-174.5 626.1,-333.6 761.4,-520.3 475.3,-655.3 824.3,-846.8 934.5,-895.3 -0.5,-6.2 -1,-12.5 -1.5,-18.7"
         style="fill:#68ae3e;fill-opacity:1;fill-rule:nonzero;stroke:none"
         id="path276" /><path
         d="m 33674.8,5143.7 c -3.2,0 -6.7,0.1 -10.5,0.4 v 0 c 0.5,6.2 1,12.5 1.5,18.7 21.5,-9.5 34,-13.5 36.4,-14.5 l 0.4,-0.2 c 0,0 -8.4,-4.4 -27.8,-4.4"
         style="fill:#7c4b1f;fill-opacity:1;fill-rule:nonzero;stroke:none"
         id="path278" /><path
         d="m 33775.4,6323.1 7.9,1 c -6,-5.9 -9.1,-9.1 -9.1,-9.1 0,0 0.3,2.8 1.2,8.1"
         style="fill:#74c93f;fill-opacity:1;fill-rule:nonzero;stroke:none"
         id="path280" /><path
         d="m 33794.7,6335.4 c 0.2,3.5 0.4,7 0.6,10.5 52.6,95.7 274.1,480.9 506.6,633.8 266.3,175.1 464.6,595 527.4,948.7 v 0.4 c 0.2,-7.2 0.3,-14.4 0.3,-21.6 0.1,-402.8 -280.8,-817.6 -439.5,-977.9 -140.9,-142.5 -505.1,-504.2 -595.4,-593.9"
         style="fill:#68ae3e;fill-opacity:1;fill-rule:nonzero;stroke:none"
         id="path282" /><path
         d="m 33783.7,6324.5 c 0.9,1.7 4.8,9.2 11.6,21.4 -0.2,-3.5 -0.4,-7 -0.6,-10.5 v 0 c -4.3,-4.3 -8,-7.9 -11,-10.9"
         style="fill:#7c4b1f;fill-opacity:1;fill-rule:nonzero;stroke:none"
         id="path284" /><path
         d="m 34365.6,8346.8 v 0 l -0.6,2.2 c -0.8,2.3 -1.7,4.6 -2.5,6.8 l 0.5,-1.2 c 0.1,-0.2 0.2,-0.4 0.3,-0.6 0.7,-1.5 1.2,-3.2 1.7,-5 l 0.6,-2.2 v 0"
         style="fill:#d9d5d4;fill-opacity:1;fill-rule:nonzero;stroke:none"
         id="path286" /><path
         d="m 33808.8,6989 c 0,1.3 -0.1,2.7 -0.2,4 38.4,75.6 233.3,454.3 399.5,674.7 180.8,239.9 198.3,553.3 157.5,679.1 v 0 l -0.6,2.2 c -0.5,1.8 -1,3.5 -1.7,5 6.5,-14.5 48.9,-114.7 48.8,-265.9 0,-152.9 -43.4,-357.9 -211,-579.1 -282.9,-373.6 -369.9,-489.8 -392.3,-520"
         style="fill:#68ae3e;fill-opacity:1;fill-rule:nonzero;stroke:none"
         id="path288" /><path
         d="m 33802,6979.8 v 0.2 c 0.6,1.1 2.8,5.6 6.6,13 0.1,-1.3 0.2,-2.7 0.2,-4 v 0 c -4.6,-6.3 -6.5,-8.8 -6.8,-9.2"
         style="fill:#7c4b1f;fill-opacity:1;fill-rule:nonzero;stroke:none"
         id="path290" /><path
         d="m 33541.9,8675.4 v 0 c -0.7,1.2 -1.3,2.2 -1.8,3.1 l -1.3,2.2 c -0.9,1.3 -1.6,2.4 -2.1,3.1 l -0.4,0.7 v 0 l 0.4,-0.7 c 0.6,-0.7 1.3,-1.7 2.1,-3.1 l 1.3,-2.2 c 0.5,-0.9 1.1,-1.9 1.8,-3.1 v 0"
         style="fill:#d9d5d4;fill-opacity:1;fill-rule:nonzero;stroke:none"
         id="path292" /><path
         d="m 33785.6,7152.3 c -91.7,502.7 -41,679.8 -11.4,897.1 26.9,198 -192.9,562.8 -232.3,626 v 0 c -0.7,1.2 -1.3,2.2 -1.8,3.1 l -1.3,2.2 c -0.8,1.4 -1.5,2.4 -2.1,3.1 l -0.4,0.7 c 10.8,-11.3 284.9,-304.7 285,-719.5 0.1,-39 -2.3,-79.1 -7.6,-120.1 -29.6,-230 -37.4,-397.8 -37.4,-510.8 0,-113.8 7.9,-171.9 9.3,-181.8"
         style="fill:#68ae3e;fill-opacity:1;fill-rule:nonzero;stroke:none"
         id="path294" /><path
         d="m 33719.5,5757.4 c -132,29.7 -646.4,175.3 -1033.6,703.6 -447.8,610.9 -229.1,659.5 -593.5,1034.3 l 0.3,-0.2 c 12.2,-9.8 367.4,-296 764.8,-1082.5 0,0 321,-470.4 862.4,-651.6 -0.2,-1.2 -0.3,-2.4 -0.4,-3.6"
         style="fill:#68ae3e;fill-opacity:1;fill-rule:nonzero;stroke:none"
         id="path296" /><path
         d="m 33751,5751 c -2.3,0.3 -13.2,2.2 -31.5,6.4 v 0 c 0.1,1.2 0.2,2.4 0.4,3.6 10.3,-3.5 20.6,-6.8 31.1,-10"
         style="fill:#7c4b1f;fill-opacity:1;fill-rule:nonzero;stroke:none"
         id="path298" /><path
         d="m 33763.6,6250.9 c -100.7,45.9 -557.2,273.1 -781.9,713.1 -253.2,496 -340,732 -485.6,850.1 h 0.1 c 12.4,-8.7 369.7,-264.6 600.1,-822.8 206.3,-499.7 580.4,-699 667.3,-739.6 0,-0.3 0,-0.5 0,-0.8"
         style="fill:#68ae3e;fill-opacity:1;fill-rule:nonzero;stroke:none"
         id="path300" /><path
         d="m 33782.6,6242.5 c -2.2,0.9 -8.8,3.7 -19,8.4 v 0 c 0,0.3 0,0.5 0,0.8 11.9,-5.6 18.4,-8.2 18.4,-8.2 l 0.6,-1"
         style="fill:#7c4b1f;fill-opacity:1;fill-rule:nonzero;stroke:none"
         id="path302" /><path
         d="m 33798.4,6816.9 c -61.9,55.6 -349.1,328.3 -543.3,759.8 -218.3,485.3 -291.4,648.7 -378,683.6 l -0.2,0.1 c 0,0 20.5,-2.6 53.5,-16.9 -31.1,12 -50.6,16.3 -53.3,16.8 86.6,-34.9 159.7,-198.3 378,-683.6 194.2,-431.5 481.4,-704.2 543.3,-759.8 v 0 m 0,1.3 c -4.4,5.1 -10.1,12.1 -17,21.6 6.8,-8.1 12.5,-14.8 17.1,-20.1 0,-0.5 -0.1,-1 -0.1,-1.5"
         style="fill:#d9d5d4;fill-opacity:1;fill-rule:nonzero;stroke:none"
         id="path304" /><path
         d="m 33798.4,6816.9 c -61.9,55.6 -349.1,328.3 -543.3,759.8 -218.3,485.3 -291.4,648.7 -378,683.6 2.7,-0.5 22.2,-4.8 53.3,-16.8 v 0 c 1,-0.4 2,-0.8 3,-1.3 88.8,-39.4 261.5,-161.1 368.1,-529.1 122.9,-423.9 391.3,-767.6 479.9,-873.3 v 0 c 6.9,-9.5 12.6,-16.5 17,-21.6 0,-0.4 0,-0.8 0,-1.3"
         style="fill:#68ae3e;fill-opacity:1;fill-rule:nonzero;stroke:none"
         id="path306" /><path
         d="m 33810.2,6806.4 -0.1,0.1 -0.2,0.1 -0.3,0.2 -0.2,0.2 -0.4,0.4 -0.8,0.7 -0.9,0.8 -1,1 c -2,1.7 -4.6,4.1 -7.9,7 v 0 c 0,0.5 0,0.9 0,1.3 0,0.5 0.1,1 0.1,1.5 6.6,-7.6 10.6,-12.1 11.7,-13.2 v -0.1"
         style="fill:#7c4b1f;fill-opacity:1;fill-rule:nonzero;stroke:none"
         id="path308" /><path
         d="m 34244.7,2589 h -1073 c -67,0 -123.2,50.4 -130.4,117 l -103.8,952.2 c -8.4,77.6 52.3,145.4 130.4,145.4 h 1280.6 c 78,0 138.8,-67.8 130.4,-145.4 L 34375.1,2706 c -7.2,-66.6 -63.4,-117 -130.4,-117"
         style="fill:#d58a18;fill-opacity:1;fill-rule:nonzero;stroke:none"
         id="path310" /><path
         d="m 34552.8,3477.3 h -1673.2 c -44.9,0 -81.2,36.4 -81.2,81.2 v 163.9 c 0,44.8 36.3,81.2 81.2,81.2 h 1673.2 c 44.8,0 81.1,-36.4 81.1,-81.2 v -163.9 c 0,-44.8 -36.3,-81.2 -81.1,-81.2"
         style="fill:#f9a70d;fill-opacity:1;fill-rule:nonzero;stroke:none"
         id="path312" /><path
         d="m 19141.2,7576.6 c 0,0 -14.2,362.9 85.8,424.5 201.2,124 413.2,-7 194.1,-424.5 h -279.9"
         style="fill:#e9d5ba;fill-opacity:1;fill-rule:nonzero;stroke:none"
         id="path314" /><path
         d="m 19210.8,2995.8 -79,-365.4 c -4.6,-21.3 11.6,-41.4 33.4,-41.4 h 989.4 c 36.9,0 47.6,50.5 13.8,65.3 -160.1,70.4 -551.3,190.9 -635.3,328.6 -5.7,9.3 -15.3,15.3 -26.1,16.3 l -259.7,23.4 c -17.2,1.5 -32.8,-10 -36.5,-26.8"
         style="fill:#1a1817;fill-opacity:1;fill-rule:nonzero;stroke:none"
         id="path316" /><path
         d="m 18281.6,3399.8 -245.8,-281.7 c -14.3,-16.4 -9.9,-41.8 9.2,-52.3 l 866.1,-478.3 c 32.3,-17.8 66.1,21.2 43.7,50.5 -106.2,139 -390.4,433.6 -397.4,594.8 -0.4,10.8 -5.9,20.8 -14.9,26.8 l -216.1,146.1 c -14.3,9.6 -33.5,7.1 -44.8,-5.9"
         style="fill:#1a1817;fill-opacity:1;fill-rule:nonzero;stroke:none"
         id="path318" /><path
         d="m 16544.3,5729.5 c 0,0 -37.9,-934.5 2272.1,-1210.5 l -663.7,-1202.3 515.6,-211.7 731.3,1543.4 44.9,319.2 -2900.2,761.9"
         style="fill:#1b3348;fill-opacity:1;fill-rule:nonzero;stroke:none"
         id="path320" /><path
         d="m 17919.1,5852.9 1616,-466.8 c 180.8,-52.3 297.3,-227.5 275.7,-414.4 l -231.7,-1999.2 c 0,0 -287.1,-92.1 -439.7,43.7 L 19292,4795 c 0,0 -2635.2,-332.4 -2756,958.1 l 1383.1,99.8"
         style="fill:#234465;fill-opacity:1;fill-rule:nonzero;stroke:none"
         id="path322" /><path
         d="m 18119.6,9427 c 0,0 136.6,-599.9 -145.6,-825.7 0,0 -86.5,-14.8 -194.7,35.7 l -60.7,-285.2 -460.4,35.7 112.9,926.7 222.8,314.8 h 338.6 l 187.1,-202"
         style="fill:#e9d5ba;fill-opacity:1;fill-rule:nonzero;stroke:none"
         id="path324" /><path
         d="m 18128.5,9290.4 c 0,0 142.6,160.4 0,294.1 0,0 32.7,311.8 -484.2,213.8 0,0 -255.4,35.7 -350.4,-142.6 0,0 -276.3,-409.9 0,-953.4 0,0 504.9,-98 555.4,300 0,0 -5.9,216.3 136.6,252.2 0,0 80.2,-32.4 142.6,35.9"
         style="fill:#773d19;fill-opacity:1;fill-rule:nonzero;stroke:none"
         id="path326" /><path
         d="m 17171.8,4352.9 c 0,-71.4 150.1,-166.3 329.5,-166.3 179.3,0 320,94.9 320,166.3 0,71.5 -140.7,92.4 -320,92.4 -179.4,0 -329.5,-20.9 -329.5,-92.4"
         style="fill:#2f2d2e;fill-opacity:1;fill-rule:nonzero;stroke:none"
         id="path328" /><path
         d="m 16786.3,4462.6 h 1420.5 c 137.6,0 250.3,112.6 250.3,250.3 0,137.6 -112.7,250.3 -250.3,250.3 h -1420.5 c -137.7,0 -250.3,-112.7 -250.3,-250.3 0,-137.7 112.6,-250.3 250.3,-250.3"
         style="fill:#42a0d0;fill-opacity:1;fill-rule:nonzero;stroke:none"
         id="path330" /><path
         d="m 16764.3,4352.9 h 1427.1 c 27,0 49.1,22.1 49.1,49.1 v 11.5 c 0,27 -22.1,49.1 -49.1,49.1 h -1427.1 c -27,0 -49,-22.1 -49,-49.1 V 4402 c 0,-27 22,-49.1 49,-49.1"
         style="fill:#2f2d2e;fill-opacity:1;fill-rule:nonzero;stroke:none"
         id="path332" /><path
         d="m 17493.4,3170.1 v 0 c 44.7,0 81.3,36.6 81.3,81.3 V 4217 c 0,44.7 -36.6,81.3 -81.3,81.3 -44.7,0 -81.2,-36.6 -81.2,-81.3 v -965.6 c 0,-44.7 36.5,-81.3 81.2,-81.3"
         style="fill:#2f2d2e;fill-opacity:1;fill-rule:nonzero;stroke:none"
         id="path334" /><path
         d="m 16866.5,2800.9 636.1,367.3 c 36.4,21 49,68 28,104.4 -21,36.4 -68,48.9 -104.4,27.9 l -636.1,-367.2 c -36.4,-21 -49,-68 -27.9,-104.4 21,-36.4 67.9,-49 104.3,-28"
         style="fill:#2f2d2e;fill-opacity:1;fill-rule:nonzero;stroke:none"
         id="path336" /><path
         d="m 18122.1,2800.9 -636.1,367.3 c -36.4,21 -49,68 -27.9,104.4 21,36.4 67.9,48.9 104.3,27.9 l 636.1,-367.2 c 36.4,-21 49,-68 28,-104.4 -21,-36.4 -68,-49 -104.4,-28"
         style="fill:#2f2d2e;fill-opacity:1;fill-rule:nonzero;stroke:none"
         id="path338" /><path
         d="m 16506.4,2807.2 c 0,-120.5 97.6,-218.2 218.1,-218.2 120.5,0 218.1,97.7 218.1,218.2 0,120.4 -97.6,218.1 -218.1,218.1 -120.5,0 -218.1,-97.7 -218.1,-218.1"
         style="fill:#2f2d2e;fill-opacity:1;fill-rule:nonzero;stroke:none"
         id="path340" /><path
         d="m 16596.2,2802.2 c 0,-68.1 55.2,-123.3 123.4,-123.3 68.1,0 123.3,55.2 123.3,123.3 0,68.2 -55.2,123.4 -123.3,123.4 -68.2,0 -123.4,-55.2 -123.4,-123.4"
         style="fill:#58595b;fill-opacity:1;fill-rule:nonzero;stroke:none"
         id="path342" /><path
         d="m 17987.7,2800.7 c 0,-120.5 97.6,-218.2 218.1,-218.2 120.5,0 218.2,97.7 218.2,218.2 0,120.5 -97.7,218.1 -218.2,218.1 -120.5,0 -218.1,-97.6 -218.1,-218.1"
         style="fill:#2f2d2e;fill-opacity:1;fill-rule:nonzero;stroke:none"
         id="path344" /><path
         d="m 18082.5,2800.7 c 0,-68.1 55.2,-123.4 123.3,-123.4 68.1,0 123.4,55.3 123.4,123.4 0,68.1 -55.3,123.3 -123.4,123.3 -68.1,0 -123.3,-55.2 -123.3,-123.3"
         style="fill:#58595b;fill-opacity:1;fill-rule:nonzero;stroke:none"
         id="path346" /><path
         d="m 17823.7,8325.5 -20.7,122 c 0,0 -314.9,146.7 -647,68.2 l -51.9,-123.6 c 0,0 -979.9,-58.2 -559.8,-2662.6 0,0 764.5,-411.7 1495.4,109.2 0,0 184.8,1872.8 218.4,2280.7 l -434.4,206.1"
         style="fill:#f9a70d;fill-opacity:1;fill-rule:nonzero;stroke:none"
         id="path348" /><path
         d="m 18258.1,8119.4 c 0,0 812.9,-1179.9 647.9,-1554.2 0,0 -92.8,-177.7 -312.9,-76.1 -220.1,101.5 -875,1090.6 -335,1630.3"
         style="fill:#f9a70d;fill-opacity:1;fill-rule:nonzero;stroke:none"
         id="path350" /><path
         d="m 16319.2,6365 h 1130.2 c 102.7,0 186.8,84.1 186.8,186.8 v 1130.1 c 0,102.7 -84.1,186.8 -186.8,186.8 h -1130.2 c -102.7,0 -186.7,-84.1 -186.7,-186.8 V 6551.8 c 0,-102.7 84,-186.8 186.7,-186.8"
         style="fill:#42a0d0;fill-opacity:1;fill-rule:nonzero;stroke:none"
         id="path352" /><path
         d="M 16257.8,6365 H 17388 c 102.7,0 186.7,84.1 186.7,186.8 v 1130.1 c 0,102.7 -84,186.8 -186.7,186.8 h -1130.2 c -102.7,0 -186.8,-84.1 -186.8,-186.8 V 6551.8 c 0,-102.7 84.1,-186.8 186.8,-186.8"
         style="fill:#3587aa;fill-opacity:1;fill-rule:nonzero;stroke:none"
         id="path354" /><path
         d="m 16433.8,7084.5 c 0,-182.1 147.7,-329.8 329.9,-329.8 182.1,0 329.8,147.7 329.8,329.8 0,182.2 -147.7,329.9 -329.8,329.9 -182.2,0 -329.9,-147.7 -329.9,-329.9"
         style="fill:#2f2d2e;fill-opacity:1;fill-rule:nonzero;stroke:none"
         id="path356" /><path
         d="m 17496.5,4352.9 39.4,75.4 -38.5,-73.7 38.8,73.5 -0.3,0.2 -38.5,-73.7 38.8,73.5 h -0.1 l -21,-39.8 21.8,39.4 -0.8,0.4 -21,-39.8 21.8,39.4 -0.4,-0.6 0.4,0.6 v 0 l -0.4,-0.6 0.4,0.6 c -1.2,0.7 -43.9,24.9 -107.9,96.2 -96,106.9 -240.7,320.3 -362,720.9 -121.1,400.5 -218.4,988 -218.3,1839.7 h -85 l -82.1,-22 732.8,-2731.6 82.1,22 39.4,75.4 -39.4,-75.4 82.1,22 -899.9,3354.4 v -644.8 c 0,-591.6 46.1,-1061.1 115.9,-1433.3 104.8,-558.3 263.1,-898.2 399.6,-1100.8 136.3,-202.5 251,-266.7 263,-272.8 l 171.6,-89.7 -50.2,187 -82.1,-22"
         style="fill:#2f2d2e;fill-opacity:1;fill-rule:nonzero;stroke:none"
         id="path358" /><path
         d="m 18855.6,6506.1 569,1084.2 c 0,0 -89.3,162.8 -248,98.3 l -719.5,-775.2 398.5,-407.3"
         style="fill:#f9a70d;fill-opacity:1;fill-rule:nonzero;stroke:none"
         id="path360" /><path
         d="m 27954,10123.5 h -1745.7 c -403.1,0 -732.8,329.8 -732.8,732.9 v 79.7 c 0,403.1 329.7,732.9 732.8,732.9 H 27954 c 403,0 732.8,-329.8 732.8,-732.9 v -79.7 c 0,-403.1 -329.8,-732.9 -732.8,-732.9"
         style="fill:#bb2723;fill-opacity:1;fill-rule:nonzero;stroke:none"
         id="path362" /><path
         d="m 27348.3,10123.5 449,-350.7 c 25.2,-19.7 60.1,7 47.8,36.5 l -131.7,314.2 h -365.1"
         style="fill:#bb2723;fill-opacity:1;fill-rule:nonzero;stroke:none"
         id="path364" /><path
         d="m 27570.9,10926.7 c 0,-121.2 98.2,-219.4 219.4,-219.4 121.2,0 219.4,98.2 219.4,219.4 0,121.2 -98.2,219.4 -219.4,219.4 -121.2,0 -219.4,-98.2 -219.4,-219.4"
         style="fill:#ffffff;fill-opacity:1;fill-rule:nonzero;stroke:none"
         id="path366" /><path
         d="m 26880.2,10896.3 c 0,-121.2 98.2,-219.5 219.4,-219.5 121.2,0 219.4,98.3 219.4,219.5 0,121.1 -98.2,219.4 -219.4,219.4 -121.2,0 -219.4,-98.3 -219.4,-219.4"
         style="fill:#ffffff;fill-opacity:1;fill-rule:nonzero;stroke:none"
         id="path368" /><path
         d="m 26189.5,10865.8 c 0,-121.2 98.2,-219.4 219.4,-219.4 121.2,0 219.4,98.2 219.4,219.4 0,121.2 -98.2,219.4 -219.4,219.4 -121.2,0 -219.4,-98.2 -219.4,-219.4"
         style="fill:#ffffff;fill-opacity:1;fill-rule:nonzero;stroke:none"
         id="path370" /><path
         d="m 11436.6,8309.9 236.1,-566.7 c 0,0 322.2,-292.7 590.2,-507 142.6,-113.9 269.8,-205.6 325.3,-219.5 159.8,-40 1068,319.7 1162.5,364.3 94.4,44.6 134.4,2.6 301.5,0 167.1,-2.6 428.6,311.4 443.2,391.3 14.5,79.9 -486.8,7.2 -486.8,7.2 0,0 101.7,181.7 43.6,228.5 -58.2,46.9 -305.2,-257.5 -410.5,-348.3 -105.3,-90.8 -915.5,-167.2 -1006.3,-178 -15.6,-1.9 -55.9,28.1 -112.1,79.1 -269.5,244.8 -902.3,973.7 -902.3,973.7 l -184.4,-224.6"
         style="fill:#e9d5ba;fill-opacity:1;fill-rule:nonzero;stroke:none"
         id="path372" /><path
         d="m 11436.6,8309.9 236.1,-566.7 c 0,0 322.2,-292.7 590.2,-507 72.7,136.5 178.6,249.6 260.4,324.6 -269.5,244.8 -902.3,973.7 -902.3,973.7 l -184.4,-224.6"
         style="fill:#bb2723;fill-opacity:1;fill-rule:nonzero;stroke:none"
         id="path374" /><path
         d="m 13330.4,2773.8 c 0,0 -30.7,-292.6 31.5,-305.4 62.2,-12.8 1050.1,59.7 1102,130.2 51.9,70.5 -64,109 -64,109 l -655.1,284.4 -414.4,-218.2"
         style="fill:#1a1817;fill-opacity:1;fill-rule:nonzero;stroke:none"
         id="path376" /><path
         d="m 12600.8,3094.5 c 0,0 -149.5,-170.6 -116.1,-206.3 33.5,-35.7 687.7,-429.7 751.7,-408.5 64.1,21.3 8.2,97.2 8.2,97.2 l -285.8,470.5 -358,47.1"
         style="fill:#1a1817;fill-opacity:1;fill-rule:nonzero;stroke:none"
         id="path378" /><path
         d="m 11942.1,6166.5 c 0,0 1528.8,-661.6 1480.1,-1161.6 C 13374.1,4509.8 13045,2942 13045,2942 c 0,0 -302,-70.4 -477.1,169.8 0,0 204.1,1510.4 170.5,1610.4 -33.7,100 -1602.3,901.1 -1602.3,901.1 l -42.6,464.5 848.6,78.7"
         style="fill:#1d3851;fill-opacity:1;fill-rule:nonzero;stroke:none"
         id="path380" /><path
         d="m 10563.6,4487.2 h 1011.8 V 4626 H 10565 c -28.3,0.7 -568.71,23.8 -568.71,661.5 0,334.2 103.71,464.2 213.51,601.9 121.4,152.1 246.9,309.4 246.9,701.7 h -138.8 c 0,-343.8 -105.2,-475.6 -216.6,-615.2 -119.82,-150.3 -243.77,-305.6 -243.77,-688.4 0,-404.9 192.07,-601.7 353.17,-695.4 172.9,-100.7 345.1,-104.7 352.3,-104.8 l 0.6,-0.1"
         style="fill:#2f2d2e;fill-opacity:1;fill-rule:nonzero;stroke:none"
         id="path382" /><path
         d="m 11208.7,4598.4 c 0,-80.7 169.5,-187.9 372,-187.9 202.6,0 361.4,107.2 361.4,187.9 0,80.6 -158.8,104.3 -361.4,104.3 -202.5,0 -372,-23.7 -372,-104.3"
         style="fill:#2f2d2e;fill-opacity:1;fill-rule:nonzero;stroke:none"
         id="path384" /><path
         d="m 10773.3,4722.2 h 1604.2 c 155.5,0 282.6,127.2 282.6,282.7 0,155.4 -127.1,282.6 -282.6,282.6 h -1604.2 c -155.5,0 -282.7,-127.2 -282.7,-282.6 0,-155.5 127.2,-282.7 282.7,-282.7"
         style="fill:#42a0d0;fill-opacity:1;fill-rule:nonzero;stroke:none"
         id="path386" /><path
         d="m 10748.5,4598.4 h 1611.6 c 30.5,0 55.4,24.9 55.4,55.4 v 13 c 0,30.4 -24.9,55.4 -55.4,55.4 h -1611.6 c -30.5,0 -55.4,-25 -55.4,-55.4 v -13 c 0,-30.5 24.9,-55.4 55.4,-55.4"
         style="fill:#2f2d2e;fill-opacity:1;fill-rule:nonzero;stroke:none"
         id="path388" /><path
         d="m 11571.9,3262.6 v 0 c 50.5,0 91.8,41.3 91.8,91.8 v 1090.5 c 0,50.5 -41.3,91.8 -91.8,91.8 v 0 c -50.5,0 -91.8,-41.3 -91.8,-91.8 V 3354.4 c 0,-50.5 41.3,-91.8 91.8,-91.8"
         style="fill:#2f2d2e;fill-opacity:1;fill-rule:nonzero;stroke:none"
         id="path390" /><path
         d="m 10863.9,2845.7 718.4,414.7 c 41.1,23.8 55.3,76.8 31.6,117.9 -23.8,41.1 -76.8,55.3 -117.9,31.6 l -718.4,-414.8 c -41.1,-23.7 -55.3,-76.7 -31.6,-117.8 23.8,-41.1 76.8,-55.3 117.9,-31.6"
         style="fill:#2f2d2e;fill-opacity:1;fill-rule:nonzero;stroke:none"
         id="path392" /><path
         d="m 12281.9,2845.7 -718.4,414.7 c -41.1,23.8 -55.3,76.8 -31.6,117.9 23.8,41.1 76.8,55.3 117.9,31.6 l 718.4,-414.8 c 41.1,-23.7 55.3,-76.7 31.5,-117.8 -23.7,-41.1 -76.7,-55.3 -117.8,-31.6"
         style="fill:#2f2d2e;fill-opacity:1;fill-rule:nonzero;stroke:none"
         id="path394" /><path
         d="m 10457.2,2852.7 c 0,-136 110.3,-246.3 246.3,-246.3 136.1,0 246.4,110.3 246.4,246.3 0,136.1 -110.3,246.4 -246.4,246.4 -136,0 -246.3,-110.3 -246.3,-246.4"
         style="fill:#2f2d2e;fill-opacity:1;fill-rule:nonzero;stroke:none"
         id="path396" /><path
         d="m 10564.2,2852.7 c 0,-76.9 62.4,-139.3 139.3,-139.3 76.9,0 139.3,62.4 139.3,139.3 0,76.9 -62.4,139.3 -139.3,139.3 -76.9,0 -139.3,-62.4 -139.3,-139.3"
         style="fill:#58595b;fill-opacity:1;fill-rule:nonzero;stroke:none"
         id="path398" /><path
         d="m 12137.4,2852.7 c 0,-136 110.3,-246.3 246.3,-246.3 136.1,0 246.4,110.3 246.4,246.3 0,136.1 -110.3,246.4 -246.4,246.4 -136,0 -246.3,-110.3 -246.3,-246.4"
         style="fill:#2f2d2e;fill-opacity:1;fill-rule:nonzero;stroke:none"
         id="path400" /><path
         d="m 12244.4,2852.7 c 0,-76.9 62.4,-139.3 139.3,-139.3 76.9,0 139.3,62.4 139.3,139.3 0,76.9 -62.4,139.3 -139.3,139.3 -76.9,0 -139.3,-62.4 -139.3,-139.3"
         style="fill:#58595b;fill-opacity:1;fill-rule:nonzero;stroke:none"
         id="path402" /><path
         d="m 9859.29,7610.4 c 67.15,-200.9 230.61,-800.9 7.16,-1347.1 -14.25,-34.9 11.41,-73 49.04,-73 h 607.61 c 18.5,0 35.8,9.6 45.3,25.5 53.9,89.9 198.8,442 -8.8,1422.4 -5.2,24.5 -26.9,42.1 -51.9,42.1 h -598.17 c -36.23,0 -61.72,-35.5 -50.24,-69.9"
         style="fill:#3587aa;fill-opacity:1;fill-rule:nonzero;stroke:none"
         id="path404" /><path
         d="m 9986.4,7599 c 68.7,-209.7 220.4,-790.3 8.44,-1323.2 -16.29,-41 13.46,-85.5 57.46,-85.5 h 588.9 c 22.1,0 42.7,11.6 53.7,30.8 55.9,97.9 191,453.4 -10.5,1409.9 -6,28.7 -31.4,49.3 -60.7,49.3 h -578.3 c -42.2,0 -72.14,-41.2 -59,-81.3"
         style="fill:#42a0d0;fill-opacity:1;fill-rule:nonzero;stroke:none"
         id="path406" /><path
         d="m 10523.1,6190.3 c 0,0 -309.5,-955.4 1031.2,-1043.8 0,0 1176,-124.5 1192.1,-293.2 16,-168.7 520.8,-2066.6 520.8,-2066.6 0,0 121.2,-39.2 307.6,66 80.9,45.7 211.3,144.6 211.3,144.6 0,0 -332.8,2162.1 -481.4,2290.2 -148.6,128.1 -1662.9,835.1 -1662.9,835.1 l -1118.7,67.7"
         style="fill:#234465;fill-opacity:1;fill-rule:nonzero;stroke:none"
         id="path408" /><path
         d="m 11833.5,9649.2 c 0,0 391.1,256.8 65.2,329.9 -232,52.1 -244.4,-52.9 -342.1,0 -97.8,53 -207.7,110 -346.2,0 -138.5,-109.9 -187.4,-71.5 -211.8,-133.5 -24.5,-62 -65.2,-229 0,-420.4 0,0 -51.8,-246.9 94.9,-320.2 l 414.2,259.1 325.8,285.1"
         style="fill:#1a1817;fill-opacity:1;fill-rule:nonzero;stroke:none"
         id="path410" /><path
         d="m 11895.1,9694.9 c 0,0 106.7,-733.6 -110.2,-774.7 0,0 -291.1,5 -302.4,-73.5 -11.3,-78.4 -85.1,-244.5 -85.1,-244.5 0,0 -258.4,41.5 -364.6,143 l 22.8,175 c 0,0 84.9,954.7 839.5,774.7"
         style="fill:#e9d5ba;fill-opacity:1;fill-rule:nonzero;stroke:none"
         id="path412" /><path
         d="m 11632.7,9769.6 c 0,0 -297.9,-517.4 -539.2,-664.6 l 54.7,581.5 216.9,147.7 267.6,-64.6"
         style="fill:#1a1817;fill-opacity:1;fill-rule:nonzero;stroke:none"
         id="path414" /><path
         d="m 11280,9406.3 c 38.6,-67 115.9,-94.7 172.6,-61.9 56.7,32.7 71.4,113.5 32.7,180.5 -38.6,66.9 -115.9,94.7 -172.6,61.9 -56.8,-32.7 -71.4,-113.5 -32.7,-180.5"
         style="fill:#e9d5ba;fill-opacity:1;fill-rule:nonzero;stroke:none"
         id="path416" /><path
         d="m 11418.7,8652.5 c 0,0 -202.4,0.5 -385.9,92.7 0,0 -335.3,-106.3 -428.7,-246.5 -93.5,-140.1 -313.8,-528.7 -81,-2308.4 0,0 853.2,-374.2 1419,-23.8 0,0 -119.7,2049.9 -193.4,2196 -47.1,93.4 -134.4,221.9 -330,290"
         style="fill:#bb2723;fill-opacity:1;fill-rule:nonzero;stroke:none"
         id="path418" /><path
         d="m 10607,7079.7 c 1.7,-6.8 3.4,-13.6 5.2,-20.4 0,0 58.3,-386 151.7,-489.4 93.6,-103.4 724.2,-527.3 831.1,-689.3 106.7,-162 205.8,-371.3 320.4,-354.9 193,27.5 379.1,161.9 286.1,330.8 -93.1,168.9 -341.2,89.6 -448.1,193 -106.8,103.4 -613.4,678.9 -647.8,816.8 -10.8,43.3 -21.4,180.3 -30.7,348 -20.2,366.4 -34.8,878.8 -34.8,878.8 0,0 -32.2,344.4 -427.9,327.3 0,0 -276.3,-268.7 -5.2,-1340.7"
         style="fill:#e9d5ba;fill-opacity:1;fill-rule:nonzero;stroke:none"
         id="path420" /><path
         d="m 10598.6,7085.5 c 193.8,103.2 375.1,134.1 493.3,141.9 -21.4,386.2 -36.8,926.3 -36.8,926.3 0,0 -33.9,363.1 -451,345.1 0,0 -291.3,-283.3 -5.5,-1413.3"
         style="fill:#bb2723;fill-opacity:1;fill-rule:nonzero;stroke:none"
         id="path422" /><path
         d="m 12756.6,6724.5 h 1112.5 c 21.6,0 39.3,17.7 39.3,39.2 0,21.6 -17.7,39.3 -39.3,39.3 h -1112.5 c -21.6,0 -39.3,-17.7 -39.3,-39.3 0,-21.5 17.7,-39.2 39.3,-39.2"
         style="fill:#d8d7d6;fill-opacity:1;fill-rule:nonzero;stroke:none"
         id="path424" /><path
         d="m 13897.4,6863.6 243.6,1296.9 c 4.5,24.2 25.6,41.7 50.2,41.7 h 841.4 c 32,0 56.1,-29 50.3,-60.5 l -240.4,-1296.9 c -4.5,-24.2 -25.6,-41.8 -50.3,-41.8 h -844.5 c -32.1,0 -56.2,29.1 -50.3,60.6"
         style="fill:#d8d7d6;fill-opacity:1;fill-rule:nonzero;stroke:none"
         id="path426" /><path
         d="m 13919.8,6863.6 243.5,1296.9 c 4.6,24.2 25.7,41.7 50.3,41.7 h 841.4 c 32,0 56.1,-29 50.3,-60.5 l -240.4,-1296.9 c -4.5,-24.2 -25.7,-41.8 -50.3,-41.8 H 13970 c -32,0 -56.2,29.1 -50.2,60.6"
         style="fill:#ebebea;fill-opacity:1;fill-rule:nonzero;stroke:none"
         id="path428" /><path
         d="m 13901,6724.5 h 920.3 c 19.7,0 35.8,16.1 35.8,35.8 v 6.9 c 0,19.7 -16.1,35.8 -35.8,35.8 H 13901 c -19.7,0 -35.8,-16.1 -35.8,-35.8 v -6.9 c 0,-19.7 16.1,-35.8 35.8,-35.8"
         style="fill:#ebebea;fill-opacity:1;fill-rule:nonzero;stroke:none"
         id="path430" /><path
         d="m 13706.4,6746.6 h 98.4 c 10,0 18.2,8.2 18.2,18.2 0,10.1 -8.2,18.3 -18.2,18.3 h -98.4 c -10.1,0 -18.3,-8.2 -18.3,-18.3 0,-10 8.2,-18.2 18.3,-18.2"
         style="fill:#b5b5b4;fill-opacity:1;fill-rule:nonzero;stroke:none"
         id="path432" /><path
         d="m 13538.9,6746.6 h 98.4 c 10,0 18.2,8.2 18.2,18.2 0,10.1 -8.2,18.3 -18.2,18.3 h -98.4 c -10.1,0 -18.3,-8.2 -18.3,-18.3 0,-10 8.2,-18.2 18.3,-18.2"
         style="fill:#b5b5b4;fill-opacity:1;fill-rule:nonzero;stroke:none"
         id="path434" /><path
         d="m 26418.3,7388.2 -0.6,-7.3 -16.4,-197.5 -20.7,-249.2 -15.8,-190 c -0.9,-11.8 -10.7,-20.9 -22.5,-20.9 h -305.6 c -11.8,0 -21.6,9.1 -22.5,20.9 l -15.8,190 -20.7,249.2 -16.4,197.5 -0.6,7.3 h 457.6"
         style="fill:#f9a70d;fill-opacity:1;fill-rule:nonzero;stroke:none"
         id="path436" /><path
         d="m 26432.1,7388.2 h -485.2 l 13.8,49.4 h 457.6 l 13.8,-49.4"
         style="fill:#f4e4c3;fill-opacity:1;fill-rule:nonzero;stroke:none"
         id="path438" /><path
         d="m 26376.7,7437.6 h -378.1 l 2.1,7.4 2,7.1 9.7,34.4 h 350.5 l 9.7,-34.4 2,-7.1 2.1,-7.4"
         style="fill:#faf0dc;fill-opacity:1;fill-rule:nonzero;stroke:none"
         id="path440" /><path
         d="m 26404.9,7177.6 -19.8,-238.5 c -0.2,-2.8 -2.5,-4.9 -5.3,-4.9 h -380.6 c -2.8,0 -5.1,2.1 -5.3,4.9 l -19.8,238.5 c -0.3,3.2 2.2,5.8 5.3,5.8 h 420.2 c 3.1,0 5.6,-2.6 5.3,-5.8"
         style="fill:#f57d14;fill-opacity:1;fill-rule:nonzero;stroke:none"
         id="path442" /><path
         d="m 26376.7,7437.6 h -378.1 l 2.1,7.4 h 373.9 l 2.1,-7.4"
         style="fill:#d5c9b9;fill-opacity:1;fill-rule:nonzero;stroke:none"
         id="path444" /><path
         d="m 26417.7,7380.9 h -456.4 l -0.6,7.3 h 457.6 l -0.6,-7.3"
         style="fill:#d59017;fill-opacity:1;fill-rule:nonzero;stroke:none"
         id="path446" /><path
         d="m 26288.6,7058.8 c 0,-55.8 -45.2,-100.9 -101,-100.9 -55.7,0 -100.9,45.1 -100.9,100.9 0,55.7 45.2,100.9 100.9,100.9 55.8,0 101,-45.2 101,-100.9"
         style="fill:#f6be80;fill-opacity:1;fill-rule:nonzero;stroke:none"
         id="path448" /><path
         d="m 26260.2,7058.8 c 0,-40.1 -32.5,-72.6 -72.6,-72.6 -40,0 -72.5,32.5 -72.5,72.6 0,40.1 32.5,72.6 72.5,72.6 40.1,0 72.6,-32.5 72.6,-72.6"
         style="fill:#dc711a;fill-opacity:1;fill-rule:nonzero;stroke:none"
         id="path450" /><path
         d="m 26468,3568 c 0,0 216.9,-149.4 185.3,-253.4 -31.5,-104.1 -402.8,-548 -509.4,-606.4 -106.6,-58.5 -312,-105.9 -367.3,-74.3 -55.3,31.6 295.9,329.3 420.4,772.7 l 271,161.4"
         style="fill:#833e1b;fill-opacity:1;fill-rule:nonzero;stroke:none"
         id="path452" /><path
         d="m 25050.5,7736.4 c 0,0 198.1,-541.5 229.4,-822.9 31.2,-281.4 218.8,-1356.7 218.8,-1356.7 0,0 364.8,-310.9 416.9,-571.4 52.1,-260.6 364.8,-1125.6 552.4,-1417.4 0,0 -156.3,-187.4 -271,-161.4 0,0 -1125.6,1817.8 -1229.8,2000.5 -104.2,182.8 -826.7,2210.6 -826.7,2210.6 l 910,118.7"
         style="fill:#3a393a;fill-opacity:1;fill-rule:nonzero;stroke:none"
         id="path454" /><path
         d="m 24512,3002.6 c 0,0 87.4,-313.6 26.7,-417.2 0,0 -225,21.5 -317.9,-25 -92.9,-46.4 -767.9,-114.3 -850.1,-42.8 0,0 28.6,67.8 185.8,103.5 157.1,35.8 524.4,287.9 549.7,381.5 h 405.8"
         style="fill:#833e1b;fill-opacity:1;fill-rule:nonzero;stroke:none"
         id="path456" /><path
         d="m 23721.8,7604.9 c 0,0 121,-1936.9 145.9,-2456.6 24.9,-519.6 238.5,-2145.7 238.5,-2145.7 0,0 220.7,-59.9 405.8,0 0,0 -57,892.8 0,1049.4 56.9,156.7 99.6,882.8 -49.9,1124.8 0,0 613.7,1921.3 350.6,2522.9 l -1090.9,-94.8"
         style="fill:#434343;fill-opacity:1;fill-rule:nonzero;stroke:none"
         id="path458" /><path
         d="m 22332.1,11974 c 0,0 -185.5,-286.1 208.1,-432.7 0,0 657.7,-798.9 722.6,-843.9 26.4,-18.3 117.5,-113.1 225.8,-225.9 67,207.2 173,298.7 240.4,337.6 -81.8,70.3 -146,127.1 -170.8,157.5 -101.2,124.4 -849.2,636.2 -866.1,698.1 -16.9,61.9 22.5,213.7 -112.5,286.9 -135,73 -365.6,320.5 -399.3,298 -33.7,-22.5 151.8,-275.6 151.8,-275.6"
         style="fill:#fcdab0;fill-opacity:1;fill-rule:nonzero;stroke:none"
         id="path460" /><path
         d="m 23488.6,10471.5 c 157.8,-164.2 351.8,-366.5 435.2,-426.5 140.6,-101.3 344.2,-22.5 419.5,101.2 60,98.5 -361.2,445.6 -614.3,662.9 -67.4,-38.9 -173.4,-130.4 -240.4,-337.6"
         style="fill:#f0687a;fill-opacity:1;fill-rule:nonzero;stroke:none"
         id="path462" /><path
         d="m 24036.1,10714.3 30.9,-122.7 30.5,-120.6 35,-138.8 410.7,57.1 -19.3,197.2 -31.4,194.7 -456.4,-66.9"
         style="fill:#fcdab0;fill-opacity:1;fill-rule:nonzero;stroke:none"
         id="path464" /><path
         d="m 24424,10416.1 c -171.6,-30.9 -617.5,-55.8 -746.8,-963.1 -129.3,-907.3 44.6,-1848.1 44.6,-1848.1 0,0 700,-60.2 1328.7,131.5 0,0 -78,1099.1 -35.7,1478.1 42.4,378.9 -131.5,1284.1 -590.8,1201.6"
         style="fill:#ef3f51;fill-opacity:1;fill-rule:nonzero;stroke:none"
         id="path466" /><path
         d="m 23792.2,7744.4 c 3.9,-112.2 116.1,-317.3 166.3,-321.1 50.3,-3.9 270.7,127.6 164.4,444.8 0,0 771.7,727.2 771.7,928.4 0,74.4 -32.9,191.7 -81.9,323.5 -105.1,-43 -283,-123.6 -359.1,-203.6 0,0 -377.7,-789.1 -473.1,-835.5 -95.5,-46.4 -192.2,-224.4 -188.3,-336.5"
         style="fill:#fcdab0;fill-opacity:1;fill-rule:nonzero;stroke:none"
         id="path468" /><path
         d="m 24101.6,9488.9 c 108.3,-197.3 352,-572.5 352,-572.5 76.1,80 254,160.6 359.1,203.6 -83.4,224.4 -213.7,490.8 -308.8,658.9 -150.8,267 -220.5,386.8 -402.3,267 -183.8,-121.3 -108.3,-359.8 0,-557"
         style="fill:#f0687a;fill-opacity:1;fill-rule:nonzero;stroke:none"
         id="path470" /><path
         d="m 24097.5,10471 v 0 l -30.5,120.6 234.4,52.3 c -4.9,-81 -146,-148.5 -203.9,-172.9"
         style="fill:#d7b997;fill-opacity:1;fill-rule:nonzero;stroke:none"
         id="path472" /><path
         d="m 24346.4,11406.5 c -222.8,43.3 -304.6,-12.2 -361.4,-129.9 -56.9,-117.8 -150.2,-665.9 -105.6,-735 44.7,-69 540.1,-28.4 613.1,239.6 73.1,268 146.2,568.5 -146.1,625.3"
         style="fill:#fcdab0;fill-opacity:1;fill-rule:nonzero;stroke:none"
         id="path474" /><path
         d="m 24212.8,10985.2 c 0,0 -65.1,127.5 -36.5,313.2 0,0 -223.9,-9.5 -192.9,242.9 0,0 364.3,-50 564.3,-19 200,30.9 338.1,-373.9 147.6,-635.8 -190.4,-261.9 -171.4,-300 -171.4,-300 0,0 -315,2 -311.1,398.7"
         style="fill:#7f371a;fill-opacity:1;fill-rule:nonzero;stroke:none"
         id="path476" /><path
         d="m 24150.1,11029.4 c 0,0 76.2,123.8 145.2,50 69.1,-73.8 -47.6,-209.6 -145.2,-211.9 v 161.9"
         style="fill:#fcdab0;fill-opacity:1;fill-rule:nonzero;stroke:none"
         id="path478" /><path
         d="M 5723.62,15134.8 H 4090.19 c -59.89,0 -108.9,49 -108.9,108.9 0,59.9 49.01,108.9 108.9,108.9 h 1633.43 c 59.89,0 108.89,-49 108.89,-108.9 0,-59.9 -49,-108.9 -108.89,-108.9"
         style="fill:#9ab9cd;fill-opacity:1;fill-rule:nonzero;stroke:none"
         id="path480" /><path
         d="M 8638.53,15134.8 H 7005.09 c -59.89,0 -108.9,49 -108.9,108.9 0,59.9 49.01,108.9 108.9,108.9 h 1633.44 c 59.89,0 108.88,-49 108.88,-108.9 0,-59.9 -48.99,-108.9 -108.88,-108.9"
         style="fill:#9ab9cd;fill-opacity:1;fill-rule:nonzero;stroke:none"
         id="path482" /><path
         d="M 11623.6,15134.8 H 9990.22 c -59.9,0 -108.9,49 -108.9,108.9 0,59.9 49,108.9 108.9,108.9 h 1633.38 c 59.9,0 108.9,-49 108.9,-108.9 0,-59.9 -49,-108.9 -108.9,-108.9"
         style="fill:#9ab9cd;fill-opacity:1;fill-rule:nonzero;stroke:none"
         id="path484" /><path
         d="m 6320.09,11316.5 h -28.13 v 4215.8 h 28.13 v -4215.8"
         style="fill:#9ab9cd;fill-opacity:1;fill-rule:nonzero;stroke:none"
         id="path486" /><path
         d="m 9314.12,11316.5 h -28.13 v 4215.8 h 28.13 v -4215.8"
         style="fill:#9ab9cd;fill-opacity:1;fill-rule:nonzero;stroke:none"
         id="path488" /><path
         d="m 12371,14833.5 v -28.1 H 3526.01 v 28.1 H 12371"
         style="fill:#9ab9cd;fill-opacity:1;fill-rule:nonzero;stroke:none"
         id="path490" /><path
         d="m 4928.35,14084.1 h -465.69 v 465.6 h 465.69 v -465.6"
         style="fill:#f89910;fill-opacity:1;fill-rule:nonzero;stroke:none"
         id="path492" /><path
         d="m 4197.6,13445.8 h -465.69 v 465.6 h 465.69 v -465.6"
         style="fill:#f89910;fill-opacity:1;fill-rule:nonzero;stroke:none"
         id="path494" /><path
         d="m 4928.35,13445.8 h -465.69 v 465.6 h 465.69 v -465.6"
         style="fill:#ef3f51;fill-opacity:1;fill-rule:nonzero;stroke:none"
         id="path496" /><path
         d="m 4214.13,12745.8 h -465.68 v 465.6 h 465.68 v -465.6"
         style="fill:#f57821;fill-opacity:1;fill-rule:nonzero;stroke:none"
         id="path498" /><path
         d="m 4928.35,12745.8 h -465.69 v 465.6 h 465.69 v -465.6"
         style="fill:#f35fb7;fill-opacity:1;fill-rule:nonzero;stroke:none"
         id="path500" /><path
         d="m 4214.13,12045.8 h -465.68 v 465.6 h 465.68 v -465.6"
         style="fill:#ef3f51;fill-opacity:1;fill-rule:nonzero;stroke:none"
         id="path502" /><path
         d="m 5626.88,12745.8 h -465.69 v 465.6 h 465.69 v -465.6"
         style="fill:#f57821;fill-opacity:1;fill-rule:nonzero;stroke:none"
         id="path504" /><path
         d="m 5859.73,11707.4 h -465.69 v 465.7 h 465.69 v -465.7"
         style="fill:#ef3f51;fill-opacity:1;fill-rule:nonzero;stroke:none"
         id="path506" /><path
         d="m 5626.88,13445.8 h -465.69 v 465.6 h 465.69 v -465.6"
         style="fill:#f35fb7;fill-opacity:1;fill-rule:nonzero;stroke:none"
         id="path508" /><path
         d="m 10108.4,14084.1 h -465.69 v 465.6 h 465.69 v -465.6"
         style="fill:#f35fb7;fill-opacity:1;fill-rule:nonzero;stroke:none"
         id="path510" /><path
         d="m 10108.4,13445.8 h -465.69 v 465.6 h 465.69 v -465.6"
         style="fill:#f57821;fill-opacity:1;fill-rule:nonzero;stroke:none"
         id="path512" /><path
         d="m 10108.4,12745.8 h -465.69 v 465.6 h 465.69 v -465.6"
         style="fill:#f89910;fill-opacity:1;fill-rule:nonzero;stroke:none"
         id="path514" /><path
         d="m 10806.9,12745.8 h -465.7 v 465.6 h 465.7 v -465.6"
         style="fill:#f57821;fill-opacity:1;fill-rule:nonzero;stroke:none"
         id="path516" /><path
         d="m 10806.9,13445.8 h -465.7 v 465.6 h 465.7 v -465.6"
         style="fill:#ef3f51;fill-opacity:1;fill-rule:nonzero;stroke:none"
         id="path518" /><path
         d="m 8048.89,14084.1 h -465.68 v 465.6 h 465.68 v -465.6"
         style="fill:#ef3f51;fill-opacity:1;fill-rule:nonzero;stroke:none"
         id="path520" /><path
         d="m 7318.14,14084.1 h -465.7 v 465.6 h 465.7 v -465.6"
         style="fill:#f57821;fill-opacity:1;fill-rule:nonzero;stroke:none"
         id="path522" /><path
         d="m 7318.14,13445.8 h -465.7 v 465.6 h 465.7 v -465.6"
         style="fill:#ef3f51;fill-opacity:1;fill-rule:nonzero;stroke:none"
         id="path524" /><path
         d="m 8048.89,13445.8 h -465.68 v 465.6 h 465.68 v -465.6"
         style="fill:#f35fb7;fill-opacity:1;fill-rule:nonzero;stroke:none"
         id="path526" /><path
         d="m 7318.14,12741.7 h -465.7 v 465.7 h 465.7 v -465.7"
         style="fill:#f57821;fill-opacity:1;fill-rule:nonzero;stroke:none"
         id="path528" /><path
         d="m 12231,14084.1 h -465.7 v 465.6 h 465.7 v -465.6"
         style="fill:#f89910;fill-opacity:1;fill-rule:nonzero;stroke:none"
         id="path530" /><path
         d="m 11500.2,14084.1 h -465.6 v 465.6 h 465.6 v -465.6"
         style="fill:#ef3f51;fill-opacity:1;fill-rule:nonzero;stroke:none"
         id="path532" /><path
         d="m 11500.2,13445.8 h -465.6 v 465.6 h 465.6 v -465.6"
         style="fill:#f35fb7;fill-opacity:1;fill-rule:nonzero;stroke:none"
         id="path534" /><path
         d="m 8048.89,12745.8 h -465.68 v 465.6 h 465.68 v -465.6"
         style="fill:#f89910;fill-opacity:1;fill-rule:nonzero;stroke:none"
         id="path536" /><path
         d="m 8747.41,12745.8 h -465.68 v 465.6 h 465.68 v -465.6"
         style="fill:#f89910;fill-opacity:1;fill-rule:nonzero;stroke:none"
         id="path538" /><path
         d="m 8054.65,12045.8 h -465.68 v 465.6 h 465.68 v -465.6"
         style="fill:#f35fb7;fill-opacity:1;fill-rule:nonzero;stroke:none"
         id="path540" /><path
         d="m 25910.3,15750.3 c -369.3,0 -668.7,299.4 -668.7,668.7 0,369.4 299.4,668.8 668.7,668.8 369.4,0 668.8,-299.4 668.8,-668.8 0,-369.3 -299.4,-668.7 -668.8,-668.7 z m 0,1830.7 c -641.7,0 -1161.9,-520.2 -1161.9,-1162 0,-641.7 520.2,-1161.9 1161.9,-1161.9 641.8,0 1162,520.2 1162,1161.9 0,641.8 -520.2,1162 -1162,1162"
         style="fill:#f5984b;fill-opacity:1;fill-rule:nonzero;stroke:none"
         id="path542" /><path
         d="m 26113.8,17540.9 h -406.9 l 28.7,418.4 c 1,15.3 13.8,27.3 29.2,27.3 h 291.1 c 15.4,0 28.2,-12 29.2,-27.3 l 28.7,-418.4"
         style="fill:#f5984b;fill-opacity:1;fill-rule:nonzero;stroke:none"
         id="path544" /><path
         d="m 26113.8,15285.3 h -406.9 l 28.7,-418.3 c 1,-15.4 13.8,-27.3 29.2,-27.3 h 291.1 c 15.4,0 28.2,11.9 29.2,27.3 l 28.7,418.3"
         style="fill:#f5984b;fill-opacity:1;fill-rule:nonzero;stroke:none"
         id="path546" /><path
         d="m 24782.6,16616.6 v -406.9 l -418.4,28.6 c -15.4,1.1 -27.3,13.9 -27.3,29.3 v 291.1 c 0,15.4 11.9,28.1 27.3,29.2 l 418.4,28.7"
         style="fill:#f5984b;fill-opacity:1;fill-rule:nonzero;stroke:none"
         id="path548" /><path
         d="m 27038.1,16616.6 v -406.9 l 418.4,28.6 c 15.4,1.1 27.3,13.9 27.3,29.3 v 291.1 c 0,15.4 -11.9,28.1 -27.3,29.2 l -418.4,28.7"
         style="fill:#f5984b;fill-opacity:1;fill-rule:nonzero;stroke:none"
         id="path550" /><path
         d="m 25026.4,17142.4 -199.1,-354.8 -350.9,229.7 c -12.8,8.5 -17,25.4 -9.5,38.9 l 142.5,253.8 c 7.5,13.4 24.2,18.8 38.1,12.2 l 378.9,-179.8"
         style="fill:#f5984b;fill-opacity:1;fill-rule:nonzero;stroke:none"
         id="path552" /><path
         d="m 26993.4,16038.7 -199.1,-354.9 378.9,-179.7 c 13.9,-6.6 30.6,-1.3 38.1,12.1 l 142.5,253.9 c 7.5,13.4 3.3,30.4 -9.5,38.8 l -350.9,229.8"
         style="fill:#f5984b;fill-opacity:1;fill-rule:nonzero;stroke:none"
         id="path554" /><path
         d="m 25132.4,15571.7 343,-218.8 -249.1,-337.4 c -9.1,-12.3 -26.3,-15.5 -39.3,-7.2 l -245.4,156.5 c -13,8.3 -17.4,25.2 -10,38.7 l 200.8,368.2"
         style="fill:#f5984b;fill-opacity:1;fill-rule:nonzero;stroke:none"
         id="path556" /><path
         d="m 26345.2,17473.4 343.1,-218.8 200.8,368.1 c 7.4,13.6 3,30.5 -10,38.8 l -245.4,156.5 c -13,8.3 -30.2,5.1 -39.3,-7.3 l -249.2,-337.3"
         style="fill:#f5984b;fill-opacity:1;fill-rule:nonzero;stroke:none"
         id="path558" /><path
         d="m 24818.9,16063.8 190.9,-359.4 -383,-170.9 c -14.1,-6.3 -30.6,-0.6 -37.8,13 l -136.5,257.1 c -7.3,13.6 -2.7,30.5 10.4,38.6 l 356,221.6"
         style="fill:#f5984b;fill-opacity:1;fill-rule:nonzero;stroke:none"
         id="path560" /><path
         d="m 26810.9,17121.8 190.9,-359.4 356,221.6 c 13.1,8.1 17.7,25 10.4,38.6 l -136.5,257.1 c -7.2,13.6 -23.8,19.3 -37.8,13 l -383,-170.9"
         style="fill:#f5984b;fill-opacity:1;fill-rule:nonzero;stroke:none"
         id="path562" /><path
         d="m 26314.9,15340.9 349.1,209 190.3,-373.8 c 7,-13.7 2.1,-30.5 -11.1,-38.4 l -249.8,-149.5 c -13.2,-7.9 -30.3,-4.2 -39.1,8.4 l -239.4,344.3"
         style="fill:#f5984b;fill-opacity:1;fill-rule:nonzero;stroke:none"
         id="path564" /><path
         d="m 25156.7,17276.4 349.1,208.9 -239.4,344.3 c -8.8,12.7 -25.9,16.3 -39.1,8.4 l -249.8,-149.5 c -13.2,-7.9 -18.1,-24.7 -11.1,-38.4 l 190.3,-373.7"
         style="fill:#f5984b;fill-opacity:1;fill-rule:nonzero;stroke:none"
         id="path566" /><path
         d="M 34807.2,11585.5 H 30185 c -73.9,0 -133.8,59.9 -133.8,133.8 v 2510 h 4889.9 v -2510 c 0,-73.9 -60,-133.8 -133.9,-133.8"
         style="fill:#f5f6f6;fill-opacity:1;fill-rule:nonzero;stroke:none"
         id="path568" /><path
         d="m 30814.4,13843 h -367.6 c -17.7,0 -32.2,14.5 -32.2,32.2 0,17.7 14.5,32.2 32.2,32.2 h 367.6 c 17.7,0 32.2,-14.5 32.2,-32.2 0,-17.7 -14.5,-32.2 -32.2,-32.2"
         style="fill:#2e56a6;fill-opacity:1;fill-rule:nonzero;stroke:none"
         id="path570" /><path
         d="m 31401.8,13843 h -367.6 c -17.7,0 -32.2,14.5 -32.2,32.2 0,17.7 14.5,32.2 32.2,32.2 h 367.6 c 17.7,0 32.2,-14.5 32.2,-32.2 0,-17.7 -14.5,-32.2 -32.2,-32.2"
         style="fill:#2e56a6;fill-opacity:1;fill-rule:nonzero;stroke:none"
         id="path572" /><path
         d="m 32036,13843 h -367.6 c -17.7,0 -32.2,14.5 -32.2,32.2 0,17.7 14.5,32.2 32.2,32.2 h 367.6 c 17.7,0 32.2,-14.5 32.2,-32.2 0,-17.7 -14.5,-32.2 -32.2,-32.2"
         style="fill:#2e56a6;fill-opacity:1;fill-rule:nonzero;stroke:none"
         id="path574" /><path
         d="m 32651.2,13843 h -367.6 c -17.7,0 -32.2,14.5 -32.2,32.2 0,17.7 14.5,32.2 32.2,32.2 h 367.6 c 17.7,0 32.2,-14.5 32.2,-32.2 0,-17.7 -14.5,-32.2 -32.2,-32.2"
         style="fill:#2e56a6;fill-opacity:1;fill-rule:nonzero;stroke:none"
         id="path576" /><path
         d="M 33257.6,13843 H 32890 c -17.7,0 -32.2,14.5 -32.2,32.2 0,17.7 14.5,32.2 32.2,32.2 h 367.6 c 17.8,0 32.2,-14.5 32.2,-32.2 0,-17.7 -14.4,-32.2 -32.2,-32.2"
         style="fill:#2e56a6;fill-opacity:1;fill-rule:nonzero;stroke:none"
         id="path578" /><path
         d="m 33900.6,13843 h -367.7 c -17.7,0 -32.1,14.5 -32.1,32.2 0,17.7 14.4,32.2 32.1,32.2 h 367.7 c 17.7,0 32.1,-14.5 32.1,-32.2 0,-17.7 -14.4,-32.2 -32.1,-32.2"
         style="fill:#2e56a6;fill-opacity:1;fill-rule:nonzero;stroke:none"
         id="path580" /><path
         d="m 34526,13843 h -367.6 c -17.7,0 -32.2,14.5 -32.2,32.2 0,17.7 14.5,32.2 32.2,32.2 h 367.6 c 17.7,0 32.2,-14.5 32.2,-32.2 0,-17.7 -14.5,-32.2 -32.2,-32.2"
         style="fill:#2e56a6;fill-opacity:1;fill-rule:nonzero;stroke:none"
         id="path582" /><path
         d="m 34681.2,13657.6 h -4348 v 5.1 h 4348 v -5.1"
         style="fill:#969696;fill-opacity:1;fill-rule:nonzero;stroke:none"
         id="path584" /><path
         d="m 34681.2,13207.6 h -4348 v 5.1 h 4348 v -5.1"
         style="fill:#969696;fill-opacity:1;fill-rule:nonzero;stroke:none"
         id="path586" /><path
         d="m 34681.2,12757.6 h -4348 v 5.1 h 4348 v -5.1"
         style="fill:#969696;fill-opacity:1;fill-rule:nonzero;stroke:none"
         id="path588" /><path
         d="m 34681.2,12307.6 h -4348 v 5.1 h 4348 v -5.1"
         style="fill:#969696;fill-opacity:1;fill-rule:nonzero;stroke:none"
         id="path590" /><path
         d="m 34681.2,11857.6 h -4348 v 5.1 h 4348 v -5.1"
         style="fill:#969696;fill-opacity:1;fill-rule:nonzero;stroke:none"
         id="path592" /><path
         d="m 30335.8,11857.6 h -5.1 v 1805.1 h 5.1 v -1805.1"
         style="fill:#969696;fill-opacity:1;fill-rule:nonzero;stroke:none"
         id="path594" /><path
         d="m 30931.6,11857.6 h -5.2 v 1805.1 h 5.2 v -1805.1"
         style="fill:#969696;fill-opacity:1;fill-rule:nonzero;stroke:none"
         id="path596" /><path
         d="m 32156.4,11857.6 h -5.1 v 1805.1 h 5.1 v -1805.1"
         style="fill:#969696;fill-opacity:1;fill-rule:nonzero;stroke:none"
         id="path598" /><path
         d="m 31517.9,11857.6 h -5.2 v 1805.1 h 5.2 v -1805.1"
         style="fill:#969696;fill-opacity:1;fill-rule:nonzero;stroke:none"
         id="path600" /><path
         d="m 32780.7,11857.6 h -5.1 v 1805.1 h 5.1 v -1805.1"
         style="fill:#969696;fill-opacity:1;fill-rule:nonzero;stroke:none"
         id="path602" /><path
         d="m 33420.1,11857.6 h -5.1 v 1805.1 h 5.1 v -1805.1"
         style="fill:#969696;fill-opacity:1;fill-rule:nonzero;stroke:none"
         id="path604" /><path
         d="m 34043.6,11857.6 h -5.1 v 1805.1 h 5.1 v -1805.1"
         style="fill:#969696;fill-opacity:1;fill-rule:nonzero;stroke:none"
         id="path606" /><path
         d="m 34683.8,11857.6 h -5.2 v 1805.1 h 5.2 v -1805.1"
         style="fill:#969696;fill-opacity:1;fill-rule:nonzero;stroke:none"
         id="path608" /><path
         d="m 32626.2,12809.5 c -6.9,0 -13.8,2.7 -19.1,8 l -317.7,317.7 c -10.5,10.5 -10.5,27.6 0,38.2 10.6,10.5 27.7,10.5 38.3,0 l 317.6,-317.7 c 10.6,-10.6 10.6,-27.7 0,-38.2 -5.2,-5.3 -12.2,-8 -19.1,-8"
         style="fill:#f57c2a;fill-opacity:1;fill-rule:nonzero;stroke:none"
         id="path610" /><path
         d="m 32308.5,12809.5 c -6.9,0 -13.8,2.7 -19.1,8 -10.5,10.5 -10.5,27.6 0,38.2 l 317.7,317.7 c 10.6,10.5 27.7,10.5 38.2,0 10.6,-10.6 10.6,-27.7 0,-38.2 l -317.6,-317.7 c -5.3,-5.3 -12.2,-8 -19.2,-8"
         style="fill:#f57c2a;fill-opacity:1;fill-rule:nonzero;stroke:none"
         id="path612" /><path
         d="m 33646.8,12404.1 -131.3,159.8 c -9.5,11.5 -7.8,28.6 3.8,38 11.5,9.5 28.5,7.9 38,-3.7 l 93.4,-113.7 218.3,218.3 c 10.6,10.6 27.7,10.6 38.2,0 10.6,-10.5 10.6,-27.6 0,-38.2 l -260.4,-260.5"
         style="fill:#55c491;fill-opacity:1;fill-rule:nonzero;stroke:none"
         id="path614" /><path
         d="m 31875.8,12572.4 h -721 c -16.5,0 -30,13.5 -30,30 0,16.6 13.5,30.1 30,30.1 h 721 c 16.5,0 30,-13.5 30,-30.1 0,-16.5 -13.5,-30 -30,-30"
         style="fill:#94c7bd;fill-opacity:1;fill-rule:nonzero;stroke:none"
         id="path616" /><path
         d="m 31875.8,12475.9 h -721 c -16.5,0 -30,13.5 -30,30 0,16.5 13.5,30 30,30 h 721 c 16.5,0 30,-13.5 30,-30 0,-16.5 -13.5,-30 -30,-30"
         style="fill:#94c7bd;fill-opacity:1;fill-rule:nonzero;stroke:none"
         id="path618" /><path
         d="m 31875.8,12379.4 h -721 c -16.5,0 -30,13.5 -30,30 0,16.5 13.5,30 30,30 h 721 c 16.5,0 30,-13.5 30,-30 0,-16.5 -13.5,-30 -30,-30"
         style="fill:#94c7bd;fill-opacity:1;fill-rule:nonzero;stroke:none"
         id="path620" /><path
         d="m 34544.5,12084.4 h -405.3 c -16.6,0 -30.1,13.5 -30.1,30 0,16.5 13.5,30 30.1,30 h 405.3 c 16.5,0 30,-13.5 30,-30 0,-16.5 -13.5,-30 -30,-30"
         style="fill:#94c7bd;fill-opacity:1;fill-rule:nonzero;stroke:none"
         id="path622" /><path
         d="m 34544.5,11987.8 h -405.3 c -16.6,0 -30.1,13.5 -30.1,30 0,16.5 13.5,30.1 30.1,30.1 h 405.3 c 16.5,0 30,-13.6 30,-30.1 0,-16.5 -13.5,-30 -30,-30"
         style="fill:#94c7bd;fill-opacity:1;fill-rule:nonzero;stroke:none"
         id="path624" /><path
         d="m 33940.9,13272 h -416.7 c -29.5,0 -53.5,24 -53.5,53.6 v 174.7 c 0,29.5 24,53.5 53.5,53.5 h 416.7 c 29.6,0 53.6,-24 53.6,-53.5 v -174.7 c 0,-29.6 -24,-53.6 -53.6,-53.6"
         style="fill:#3baaa5;fill-opacity:1;fill-rule:nonzero;stroke:none"
         id="path626" /><path
         d="m 31139.9,11943.5 h -416.7 c -29.5,0 -53.5,23.9 -53.5,53.5 v 174.7 c 0,29.6 24,53.5 53.5,53.5 h 416.7 c 29.6,0 53.6,-23.9 53.6,-53.5 V 11997 c 0,-29.6 -24,-53.5 -53.6,-53.5"
         style="fill:#f57c2a;fill-opacity:1;fill-rule:nonzero;stroke:none"
         id="path628" /><path
         d="m 34101.6,14329.2 c -93.7,0 -169.7,76 -169.7,169.7 0,93.6 76,169.6 169.7,169.6 93.6,0 169.6,-76 169.6,-169.6 0,-93.7 -76,-169.7 -169.6,-169.7 z m -1634.2,0 c -93.7,0 -169.6,76 -169.6,169.7 0,93.6 75.9,169.6 169.6,169.6 93.6,0 169.6,-76 169.6,-169.6 0,-93.7 -76,-169.7 -169.6,-169.7 z m -1634.2,0 c -93.7,0 -169.6,76 -169.6,169.7 0,93.6 75.9,169.6 169.6,169.6 93.7,0 169.6,-76 169.6,-169.6 0,-93.7 -75.9,-169.7 -169.6,-169.7 z m 3876.7,441.6 h -4427.6 c -127.6,0 -231.1,-103.5 -231.1,-231.2 v -310.3 h 4889.9 v 310.3 c 0,127.7 -103.5,231.2 -231.2,231.2"
         style="fill:#f57c2a;fill-opacity:1;fill-rule:nonzero;stroke:none"
         id="path630" /><path
         d="m 34941.1,14203.7 h -4889.9 v 25.6 h 4889.9 v -25.6"
         style="fill:#c2773f;fill-opacity:1;fill-rule:nonzero;stroke:none"
         id="path632" /><path
         d="m 30832,14460.3 v 0 c -51.9,0 -94.4,42.5 -94.4,94.4 v 405.6 c 0,51.9 42.5,94.4 94.4,94.4 51.9,0 94.4,-42.5 94.4,-94.4 v -405.6 c 0,-51.9 -42.5,-94.4 -94.4,-94.4"
         style="fill:#15223a;fill-opacity:1;fill-rule:nonzero;stroke:none"
         id="path634" /><path
         d="m 32466.2,14460.3 v 0 c -51.9,0 -94.4,42.5 -94.4,94.4 v 405.6 c 0,51.9 42.5,94.4 94.4,94.4 51.9,0 94.4,-42.5 94.4,-94.4 v -405.6 c 0,-51.9 -42.5,-94.4 -94.4,-94.4"
         style="fill:#15223a;fill-opacity:1;fill-rule:nonzero;stroke:none"
         id="path636" /><path
         d="m 34100.4,14460.3 v 0 c -52,0 -94.5,42.5 -94.5,94.4 v 405.6 c 0,51.9 42.5,94.4 94.5,94.4 51.9,0 94.4,-42.5 94.4,-94.4 v -405.6 c 0,-51.9 -42.5,-94.4 -94.4,-94.4"
         style="fill:#15223a;fill-opacity:1;fill-rule:nonzero;stroke:none"
         id="path638" /></g></g></svg>
